<svg width="16" height="16" viewBox="0 0 16 16" fill="none" xmlns="http://www.w3.org/2000/svg">
<path d="M1.52574 8.66501C1.43463 8.66501 1.35841 8.63301 1.29708 8.56901C1.23574 8.50501 1.20508 8.42567 1.20508 8.33101C1.20508 8.23634 1.23708 8.15723 1.30108 8.09367C1.36508 8.03012 1.44419 7.99834 1.53841 7.99834H3.85841C3.95308 7.99834 4.03241 8.03034 4.09641 8.09434C4.16041 8.15834 4.19241 8.23767 4.19241 8.33234C4.19241 8.42701 4.16041 8.50612 4.09641 8.56967C4.03241 8.63323 3.9533 8.66501 3.85908 8.66501H1.52574ZM5.00108 12.6663C4.53886 12.6663 4.1453 12.5041 3.82041 12.1797C3.49552 11.8566 3.33308 11.4632 3.33308 10.9997H2.41041C2.26152 10.9997 2.14263 10.9441 2.05374 10.833C1.96486 10.7219 1.9353 10.595 1.96508 10.4523L2.17908 9.66501H3.84241C4.21486 9.66501 4.52974 9.53612 4.78708 9.27834C5.04441 9.02056 5.17308 8.70501 5.17308 8.33167C5.17308 8.12723 5.12863 7.93834 5.03974 7.76501C4.95086 7.59167 4.8273 7.44812 4.66908 7.33434H5.87908C6.25241 7.33434 6.56797 7.20545 6.82575 6.94767C7.08352 6.6899 7.21241 6.37456 7.21241 6.00167C7.21241 5.62879 7.08352 5.31323 6.82575 5.05501C6.56797 4.79679 6.25241 4.66767 5.87908 4.66767H3.55108L3.75374 3.93434C3.79463 3.75967 3.8813 3.6159 4.01374 3.50301C4.14486 3.38967 4.3033 3.33301 4.48908 3.33301H11.1917C11.3624 3.33301 11.5017 3.40145 11.6097 3.53834C11.7173 3.67523 11.7517 3.82767 11.7131 3.99567L11.3317 5.66634H12.1791C12.3497 5.66634 12.5113 5.70456 12.6637 5.78101C12.8166 5.85701 12.9424 5.96234 13.0411 6.09701L14.2391 7.69567C14.336 7.82545 14.3989 7.96079 14.4277 8.10167C14.4571 8.24212 14.4593 8.38967 14.4344 8.54434L14.0357 10.569C14.0109 10.6988 13.9477 10.803 13.8464 10.8817C13.7451 10.9603 13.63 10.9997 13.5011 10.9997H13.1791C13.1791 11.4615 13.0173 11.8548 12.6937 12.1797C12.3702 12.5046 11.9769 12.6668 11.5137 12.6663C11.0506 12.6659 10.6571 12.5037 10.3331 12.1797C10.0086 11.8561 9.84641 11.4628 9.84641 10.9997H6.66641C6.66641 11.4615 6.50463 11.8548 6.18108 12.1797C5.85752 12.5046 5.46419 12.6668 5.00108 12.6663ZM2.85974 6.33434C2.76508 6.33434 2.68574 6.30234 2.62174 6.23834C2.55774 6.17434 2.52574 6.09501 2.52574 6.00034C2.52574 5.90567 2.55774 5.82656 2.62174 5.76301C2.68574 5.69945 2.76486 5.66767 2.85908 5.66767H5.85908C5.95374 5.66767 6.03308 5.69967 6.09708 5.76367C6.16063 5.82767 6.19241 5.90701 6.19241 6.00167C6.19241 6.09634 6.16063 6.17545 6.09708 6.23901C6.03352 6.30256 5.95419 6.33434 5.85908 6.33434H2.85974ZM4.99974 11.9997C5.27397 11.9997 5.5093 11.9017 5.70574 11.7057C5.90174 11.5092 5.99974 11.2739 5.99974 10.9997C5.99974 10.7255 5.90174 10.4901 5.70574 10.2937C5.50974 10.0972 5.27441 9.99923 4.99974 9.99967C4.72508 10.0001 4.48974 10.0981 4.29374 10.2937C4.09774 10.4901 3.99974 10.7255 3.99974 10.9997C3.99974 11.2739 4.09774 11.5092 4.29374 11.7057C4.49019 11.9017 4.72552 11.9997 4.99974 11.9997ZM11.5131 11.9997C11.7873 11.9997 12.0224 11.9017 12.2184 11.7057C12.4144 11.5092 12.5124 11.2739 12.5124 10.9997C12.5124 10.7255 12.4144 10.4901 12.2184 10.2937C12.0224 10.0972 11.7871 9.99923 11.5124 9.99967C11.2377 10.0001 11.0026 10.0981 10.8071 10.2937C10.6106 10.4901 10.5124 10.7255 10.5124 10.9997C10.5124 11.2739 10.6104 11.5092 10.8064 11.7057C11.0029 11.9017 11.2384 11.9997 11.5131 11.9997ZM10.5904 8.83301H13.6924L13.8097 8.23967L12.3844 6.33301H11.1724L10.5904 8.83301Z" fill="#C29818"/>
</svg>
