<svg width="28" height="28" viewBox="0 0 28 28" fill="none" xmlns="http://www.w3.org/2000/svg">
<path d="M10.6245 6.35616C11.3221 4.3145 14.1431 4.25266 14.9703 6.17066L15.0403 6.35733L15.9818 9.11066C16.1976 9.7421 16.5462 10.3199 17.0043 10.8052C17.4624 11.2904 18.0192 11.6717 18.6371 11.9235L18.8903 12.018L21.6436 12.9583C23.6853 13.656 23.7471 16.477 21.8303 17.3042L21.6436 17.3742L18.8903 18.3157C18.2586 18.5313 17.6806 18.8799 17.1952 19.338C16.7097 19.796 16.3282 20.3529 16.0763 20.971L15.9818 21.223L15.0415 23.9775C14.3438 26.0192 11.5228 26.081 10.6968 24.1642L10.6245 23.9775L9.68413 21.2242C9.46851 20.5925 9.1199 20.0145 8.66183 19.529C8.20376 19.0436 7.64689 18.662 7.0288 18.4102L6.7768 18.3157L4.02347 17.3753C1.98063 16.6777 1.9188 13.8567 3.8368 13.0307L4.02347 12.9583L6.7768 12.018C7.40824 11.8022 7.98606 11.4536 8.47129 10.9955C8.95653 10.5374 9.33788 9.98064 9.58963 9.36266L9.68413 9.11066L10.6245 6.35616ZM22.1663 2.3335C22.3846 2.3335 22.5984 2.39472 22.7836 2.51021C22.9688 2.62571 23.1179 2.79083 23.214 2.98683L23.27 3.12333L23.6783 4.32033L24.8765 4.72866C25.0952 4.80297 25.2869 4.94055 25.4274 5.12395C25.5679 5.30735 25.6507 5.52832 25.6655 5.75885C25.6802 5.98939 25.6262 6.21912 25.5102 6.41891C25.3943 6.61871 25.2216 6.77959 25.0141 6.88116L24.8765 6.93716L23.6795 7.3455L23.2711 8.54366C23.1967 8.76233 23.059 8.95398 22.8755 9.09432C22.6921 9.23466 22.4711 9.31739 22.2405 9.33201C22.01 9.34662 21.7803 9.29248 21.5806 9.17644C21.3809 9.06039 21.2201 8.88767 21.1186 8.68016L21.0626 8.54366L20.6543 7.34666L19.4561 6.93833C19.2374 6.86402 19.0457 6.72645 18.9052 6.54305C18.7647 6.35965 18.6819 6.13868 18.6671 5.90814C18.6524 5.6776 18.7064 5.44788 18.8224 5.24808C18.9383 5.04828 19.111 4.8874 19.3185 4.78583L19.4561 4.72983L20.6531 4.3215L21.0615 3.12333C21.1401 2.89283 21.289 2.69272 21.4871 2.55108C21.6852 2.40943 21.9227 2.33335 22.1663 2.3335Z" fill="#1B4965"/>
</svg>
