<svg width="18" height="22" viewBox="0 0 18 22" fill="none" xmlns="http://www.w3.org/2000/svg">
<path d="M14.6859 11.919C14.6597 9.28077 16.8373 8.01543 16.9347 7.9515C15.7108 6.16208 13.8041 5.91654 13.1255 5.8886C11.5042 5.72393 9.96028 6.84364 9.13774 6.84364C8.3169 6.84364 7.04606 5.91273 5.70155 5.93644C3.93287 5.96269 2.30261 6.96514 1.39245 8.5484C-0.444391 11.7348 0.92255 16.4571 2.7124 19.0432C3.58743 20.3073 4.63094 21.7297 6 21.6776C7.31953 21.6256 7.81737 20.8242 9.41249 20.8242C11.0076 20.8242 11.4555 21.6776 12.8512 21.651C14.2702 21.6251 15.1698 20.3628 16.0376 19.0936C17.0422 17.6251 17.4558 16.2031 17.4804 16.1311C17.4495 16.1167 14.7143 15.069 14.6859 11.919Z" fill="black"/>
<path d="M12.0636 4.17684C12.7896 3.29546 13.2815 2.07076 13.1477 0.851562C12.1 0.893896 10.8317 1.54794 10.0794 2.42848C9.40549 3.20995 8.81621 4.45412 8.97411 5.65131C10.1429 5.7419 11.335 5.05653 12.0636 4.17684Z" fill="black"/>
</svg>
