<svg width="39" height="39" viewBox="0 0 39 39" fill="none" xmlns="http://www.w3.org/2000/svg">
<g filter="url(#filter0_b_575_1015)">
<rect width="39" height="39" rx="19.5" fill="#C29818"/>
<path d="M25.9167 18.5834H15.6775L20.1508 14.11C20.5083 13.7525 20.5083 13.1659 20.1508 12.8084C20.066 12.7234 19.9653 12.656 19.8544 12.61C19.7435 12.564 19.6247 12.5403 19.5046 12.5403C19.3845 12.5403 19.2657 12.564 19.1548 12.61C19.0439 12.656 18.9432 12.7234 18.8583 12.8084L12.8175 18.8492C12.7325 18.934 12.6651 19.0347 12.6191 19.1456C12.5731 19.2565 12.5494 19.3754 12.5494 19.4954C12.5494 19.6155 12.5731 19.7344 12.6191 19.8453C12.6651 19.9562 12.7325 20.0569 12.8175 20.1417L18.8583 26.1825C18.9432 26.2674 19.044 26.3347 19.1548 26.3806C19.2657 26.4266 19.3846 26.4502 19.5046 26.4502C19.6246 26.4502 19.7435 26.4266 19.8543 26.3806C19.9652 26.3347 20.066 26.2674 20.1508 26.1825C20.2357 26.0977 20.303 25.9969 20.349 25.886C20.3949 25.7751 20.4185 25.6563 20.4185 25.5363C20.4185 25.4163 20.3949 25.2974 20.349 25.1865C20.303 25.0756 20.2357 24.9749 20.1508 24.89L15.6775 20.4167H25.9167C26.4208 20.4167 26.8333 20.0042 26.8333 19.5C26.8333 18.9959 26.4208 18.5834 25.9167 18.5834Z" fill="#FFFFFE"/>
</g>
<defs>
<filter id="filter0_b_575_1015" x="-4" y="-4" width="47" height="47" filterUnits="userSpaceOnUse" color-interpolation-filters="sRGB">
<feFlood flood-opacity="0" result="BackgroundImageFix"/>
<feGaussianBlur in="BackgroundImageFix" stdDeviation="2"/>
<feComposite in2="SourceAlpha" operator="in" result="effect1_backgroundBlur_575_1015"/>
<feBlend mode="normal" in="SourceGraphic" in2="effect1_backgroundBlur_575_1015" result="shape"/>
</filter>
</defs>
</svg>
