<svg width="39" height="39" viewBox="0 0 39 39" fill="none" xmlns="http://www.w3.org/2000/svg">
<g filter="url(#filter0_b_575_1014)">
<rect width="39" height="39" rx="19.5" fill="#1B4965"/>
<path d="M25.917 18.5834H15.6779L20.1512 14.11C20.5087 13.7525 20.5087 13.1659 20.1512 12.8084C20.0664 12.7234 19.9657 12.656 19.8548 12.61C19.7439 12.564 19.625 12.5403 19.505 12.5403C19.3849 12.5403 19.266 12.564 19.1551 12.61C19.0442 12.656 18.9435 12.7234 18.8587 12.8084L12.8179 18.8492C12.7329 18.934 12.6655 19.0347 12.6195 19.1456C12.5735 19.2565 12.5498 19.3754 12.5498 19.4954C12.5498 19.6155 12.5735 19.7344 12.6195 19.8453C12.6655 19.9562 12.7329 20.0569 12.8179 20.1417L18.8587 26.1825C18.9436 26.2674 19.0443 26.3347 19.1552 26.3806C19.2661 26.4266 19.3849 26.4502 19.505 26.4502C19.625 26.4502 19.7438 26.4266 19.8547 26.3806C19.9656 26.3347 20.0663 26.2674 20.1512 26.1825C20.2361 26.0977 20.3034 25.9969 20.3493 25.886C20.3953 25.7751 20.4189 25.6563 20.4189 25.5363C20.4189 25.4163 20.3953 25.2974 20.3493 25.1865C20.3034 25.0756 20.2361 24.9749 20.1512 24.89L15.6779 20.4167H25.917C26.4212 20.4167 26.8337 20.0042 26.8337 19.5C26.8337 18.9959 26.4212 18.5834 25.917 18.5834Z" fill="#FFFFFE"/>
</g>
<defs>
<filter id="filter0_b_575_1014" x="-4" y="-4" width="47" height="47" filterUnits="userSpaceOnUse" color-interpolation-filters="sRGB">
<feFlood flood-opacity="0" result="BackgroundImageFix"/>
<feGaussianBlur in="BackgroundImageFix" stdDeviation="2"/>
<feComposite in2="SourceAlpha" operator="in" result="effect1_backgroundBlur_575_1014"/>
<feBlend mode="normal" in="SourceGraphic" in2="effect1_backgroundBlur_575_1014" result="shape"/>
</filter>
</defs>
</svg>
