<svg width="24" height="20" viewBox="0 0 24 20" fill="none" xmlns="http://www.w3.org/2000/svg">
<path d="M2.74399 16.6615H17.797C19.6142 16.6615 20.5406 15.7527 20.5406 13.9529V4.80543C20.5406 3.00568 19.6142 2.1058 17.797 2.1058H15.7527C15.0712 2.1058 14.8617 1.96601 14.4685 1.52912L13.7606 0.742566C13.3326 0.262433 12.8872 0 11.9783 0H8.50111C7.60123 0 7.1554 0.262433 6.71888 0.742566L6.01098 1.52912C5.62665 1.95706 5.4082 2.1058 4.72677 2.1058H2.74362C0.926343 2.1058 0 3.00568 0 4.80543V13.9529C0 15.7527 0.926716 16.6615 2.74399 16.6615ZM2.76971 15.2547C1.90487 15.2547 1.40685 14.7917 1.40685 13.8828V4.88408C1.40685 3.97526 1.90487 3.51228 2.76971 3.51228H5.07606C5.86261 3.51228 6.28199 3.36391 6.71888 2.87483L7.40888 2.1058C7.90691 1.54664 8.16039 1.40685 8.938 1.40685H11.5415C12.3191 1.40685 12.5725 1.54664 13.0706 2.1058L13.7606 2.87446C14.1975 3.36391 14.6168 3.51228 15.4034 3.51228H17.7709C18.6357 3.51228 19.1341 3.97526 19.1341 4.88408V13.8828C19.1341 14.7917 18.6361 15.2547 17.7709 15.2547H2.76971ZM10.2662 13.8657C10.8939 13.8675 11.5157 13.745 12.0958 13.5054C12.6759 13.2657 13.2028 12.9136 13.6462 12.4694C14.0896 12.0252 14.4407 11.4975 14.6793 10.917C14.9179 10.3364 15.0392 9.71439 15.0362 9.08674C15.0362 6.43035 12.9218 4.30778 10.2658 4.30778C7.62733 4.30778 5.50438 6.43035 5.50438 9.08674C5.50438 11.7424 7.62733 13.8657 10.2658 13.8657M16.5474 6.95447C17.1416 6.95447 17.6307 6.47434 17.6307 5.88014C17.6307 5.59283 17.5166 5.31729 17.3134 5.11414C17.1103 4.91099 16.8347 4.79685 16.5474 4.79685C16.2601 4.79685 15.9846 4.91099 15.7814 5.11414C15.5783 5.31729 15.4642 5.59283 15.4642 5.88014C15.4642 6.47434 15.9532 6.95447 16.5474 6.95447ZM10.2662 12.5379C8.37027 12.5379 6.824 11.0002 6.824 9.08674C6.824 7.17329 8.36169 5.63597 10.2662 5.63597C10.7195 5.63543 11.1685 5.72431 11.5874 5.89754C12.0064 6.07076 12.387 6.32491 12.7076 6.64545C13.0282 6.96598 13.2824 7.34661 13.4556 7.76552C13.6289 8.18443 13.7178 8.63341 13.7173 9.08674C13.7179 9.5401 13.629 9.98911 13.4557 10.4081C13.2825 10.827 13.0283 11.2077 12.7077 11.5283C12.3871 11.8488 12.0065 12.103 11.5875 12.2763C11.1686 12.4495 10.7196 12.5384 10.2662 12.5379Z" fill="#1B4965"/>
<path d="M19.854 6.6993L21.5383 6.68718C22.0934 6.68318 22.5455 7.13206 22.5455 7.68715V17.3701C22.5455 17.9224 22.0978 18.3701 21.5455 18.3701H6.01025C5.45797 18.3701 5.01025 17.9224 5.01025 17.3701V16.2826" stroke="#1B4965" stroke-width="1.5"/>
</svg>
