<svg width="25" height="25" viewBox="0 0 25 25" fill="none" xmlns="http://www.w3.org/2000/svg">
<path d="M17.7087 18.7499C18.2612 18.7499 18.7911 18.9694 19.1818 19.3601C19.5725 19.7508 19.792 20.2807 19.792 20.8333C19.792 21.3858 19.5725 21.9157 19.1818 22.3064C18.7911 22.6971 18.2612 22.9166 17.7087 22.9166C17.1561 22.9166 16.6262 22.6971 16.2355 22.3064C15.8448 21.9157 15.6253 21.3858 15.6253 20.8333C15.6253 19.677 16.5524 18.7499 17.7087 18.7499ZM1.04199 2.08325H4.44824L5.42741 4.16659H20.8337C21.1099 4.16659 21.3749 4.27633 21.5702 4.47168C21.7656 4.66703 21.8753 4.93198 21.8753 5.20825C21.8753 5.38534 21.8232 5.56242 21.7503 5.72909L18.0212 12.4687C17.667 13.1041 16.9795 13.5416 16.1982 13.5416H8.43783L7.50033 15.2395L7.46908 15.3645C7.46908 15.4336 7.49651 15.4998 7.54535 15.5486C7.59419 15.5975 7.66043 15.6249 7.72949 15.6249H19.792V17.7083H7.29199C6.73946 17.7083 6.20955 17.4888 5.81885 17.0981C5.42815 16.7074 5.20866 16.1775 5.20866 15.6249C5.20866 15.2603 5.30241 14.9166 5.45866 14.6249L6.87533 12.0728L3.12533 4.16659H1.04199V2.08325ZM7.29199 18.7499C7.84453 18.7499 8.37443 18.9694 8.76513 19.3601C9.15583 19.7508 9.37533 20.2807 9.37533 20.8333C9.37533 21.3858 9.15583 21.9157 8.76513 22.3064C8.37443 22.6971 7.84453 22.9166 7.29199 22.9166C6.73946 22.9166 6.20955 22.6971 5.81885 22.3064C5.42815 21.9157 5.20866 21.3858 5.20866 20.8333C5.20866 19.677 6.13574 18.7499 7.29199 18.7499ZM16.667 11.4583L19.5628 6.24992H6.39616L8.85449 11.4583H16.667Z" fill="#1B4965"/>
</svg>
