<svg width="28" height="28" viewBox="0 0 28 28" fill="none" xmlns="http://www.w3.org/2000/svg">
<path d="M12.833 9.3335H15.1663C18.4657 9.3335 20.1165 9.3335 21.1408 10.359C22.1663 11.3833 22.1663 13.0342 22.1663 16.3335C22.1663 19.6328 22.1663 21.2837 21.1408 22.308C20.1165 23.3335 18.4657 23.3335 15.1663 23.3335H13.9997C13.9997 23.3335 13.4163 25.6668 9.33301 25.6668C9.33301 25.6668 10.4997 24.4897 10.4997 23.3137C8.68784 23.2588 7.60634 23.057 6.85851 22.308C5.83301 21.2837 5.83301 19.6328 5.83301 16.3335C5.83301 13.0342 5.83301 11.3833 6.85851 10.359C7.88284 9.3335 9.53367 9.3335 12.833 9.3335ZM22.1663 13.4168H22.7497C23.8405 13.4168 24.3853 13.4168 24.7913 13.6513C25.0574 13.8049 25.2783 14.0258 25.4318 14.2918C25.6663 14.6978 25.6663 15.2427 25.6663 16.3335C25.6663 17.4243 25.6663 17.9692 25.4318 18.3752C25.2783 18.6412 25.0574 18.8621 24.7913 19.0157C24.3853 19.2502 23.8405 19.2502 22.7497 19.2502H22.1663M5.83301 13.4168H5.24967C4.15884 13.4168 3.61401 13.4168 3.20801 13.6513C2.942 13.8049 2.7211 14.0258 2.56751 14.2918C2.33301 14.6978 2.33301 15.2427 2.33301 16.3335C2.33301 17.4243 2.33301 17.9692 2.56751 18.3752C2.7211 18.6412 2.942 18.8621 3.20801 19.0157C3.61401 19.2502 4.15884 19.2502 5.24967 19.2502H5.83301M15.7497 4.0835C15.7497 4.54763 15.5653 4.99274 15.2371 5.32093C14.9089 5.64912 14.4638 5.8335 13.9997 5.8335C13.5355 5.8335 13.0904 5.64912 12.7622 5.32093C12.434 4.99274 12.2497 4.54763 12.2497 4.0835C12.2497 3.61937 12.434 3.17425 12.7622 2.84606C13.0904 2.51787 13.5355 2.3335 13.9997 2.3335C14.4638 2.3335 14.9089 2.51787 15.2371 2.84606C15.5653 3.17425 15.7497 3.61937 15.7497 4.0835ZM13.9997 5.8335V9.3335V5.8335ZM10.4997 14.0002V15.1668V14.0002ZM17.4997 14.0002V15.1668V14.0002Z" fill="#1B4965"/>
<path d="M22.1663 13.4168H22.7497C23.8405 13.4168 24.3853 13.4168 24.7913 13.6513C25.0574 13.8049 25.2783 14.0258 25.4318 14.2918C25.6663 14.6978 25.6663 15.2427 25.6663 16.3335C25.6663 17.4243 25.6663 17.9692 25.4318 18.3752C25.2783 18.6412 25.0574 18.8621 24.7913 19.0157C24.3853 19.2502 23.8405 19.2502 22.7497 19.2502H22.1663M5.83301 13.4168H5.24967C4.15884 13.4168 3.61401 13.4168 3.20801 13.6513C2.942 13.8049 2.7211 14.0258 2.56751 14.2918C2.33301 14.6978 2.33301 15.2427 2.33301 16.3335C2.33301 17.4243 2.33301 17.9692 2.56751 18.3752C2.7211 18.6412 2.942 18.8621 3.20801 19.0157C3.61401 19.2502 4.15884 19.2502 5.24967 19.2502H5.83301M13.9997 5.8335C14.4638 5.8335 14.9089 5.64912 15.2371 5.32093C15.5653 4.99274 15.7497 4.54762 15.7497 4.0835C15.7497 3.61937 15.5653 3.17425 15.2371 2.84606C14.9089 2.51787 14.4638 2.3335 13.9997 2.3335C13.5355 2.3335 13.0904 2.51787 12.7622 2.84606C12.434 3.17425 12.2497 3.61937 12.2497 4.0835C12.2497 4.54762 12.434 4.99274 12.7622 5.32093C13.0904 5.64912 13.5355 5.8335 13.9997 5.8335ZM13.9997 5.8335V9.3335M10.4997 14.0002V15.1668M17.4997 14.0002V15.1668M12.833 9.3335H15.1663C18.4657 9.3335 20.1165 9.3335 21.1408 10.359C22.1663 11.3833 22.1663 13.0342 22.1663 16.3335C22.1663 19.6328 22.1663 21.2837 21.1408 22.308C20.1165 23.3335 18.4657 23.3335 15.1663 23.3335H13.9997C13.9997 23.3335 13.4163 25.6668 9.33301 25.6668C9.33301 25.6668 10.4997 24.4897 10.4997 23.3137C8.68784 23.2588 7.60634 23.057 6.85851 22.308C5.83301 21.2837 5.83301 19.6328 5.83301 16.3335C5.83301 13.0342 5.83301 11.3833 6.85851 10.359C7.88284 9.3335 9.53367 9.3335 12.833 9.3335Z" stroke="#1B4965" stroke-width="1.5" stroke-linecap="round" stroke-linejoin="round"/>
<path d="M11.666 19.25C11.666 19.25 12.4442 19.8333 13.9993 19.8333C15.5545 19.8333 16.3327 19.25 16.3327 19.25" fill="#1B4965"/>
<path d="M11.666 19.25C11.666 19.25 12.4442 19.8333 13.9993 19.8333C15.5545 19.8333 16.3327 19.25 16.3327 19.25" stroke="#FFFFFE" stroke-width="1.5" stroke-linecap="round" stroke-linejoin="round"/>
<circle cx="11" cy="13" r="1" fill="#FFFFFE"/>
<circle cx="17" cy="13" r="1" fill="#FFFFFE"/>
</svg>
