<svg width="25" height="25" viewBox="0 0 25 25" fill="none" xmlns="http://www.w3.org/2000/svg">
<path d="M7.83744 18.6921C7.45438 19.0457 6.86258 19.0445 6.47952 18.6909C6.05056 18.2949 6.04896 17.6158 6.47792 17.2198L10.7949 13.2349C11.2239 12.8389 11.2239 12.1612 10.7949 11.7653L6.47792 7.78032C6.04896 7.38436 6.05056 6.70521 6.47952 6.30924C6.86258 5.95565 7.45438 5.95439 7.83744 6.30799L12.39 10.5103C12.773 10.8639 13.3635 10.8639 13.7465 10.5103L18.2991 6.30799C18.6821 5.95439 19.2739 5.95565 19.657 6.30924C20.0859 6.70521 20.0875 7.38436 19.6586 7.78032L15.3416 11.7653C14.9126 12.1612 14.9126 12.8389 15.3416 13.2349L19.6586 17.2198C20.0875 17.6158 20.0859 18.2949 19.657 18.6909C19.2739 19.0445 18.6821 19.0457 18.2991 18.6921L13.7465 14.4898C13.3635 14.1362 12.773 14.1362 12.39 14.4898L7.83744 18.6921Z" fill="#1B4965"/>
</svg>
