<svg width="28" height="28" viewBox="0 0 28 28" fill="none" xmlns="http://www.w3.org/2000/svg">
<path d="M5.25 5.25C5.25 4.32174 5.61875 3.4315 6.27513 2.77513C6.9315 2.11875 7.82174 1.75 8.75 1.75C9.67826 1.75 10.5685 2.11875 11.2249 2.77513C11.8813 3.4315 12.25 4.32174 12.25 5.25C12.25 6.17826 11.8813 7.0685 11.2249 7.72487C10.5685 8.38125 9.67826 8.75 8.75 8.75C7.82174 8.75 6.9315 8.38125 6.27513 7.72487C5.61875 7.0685 5.25 6.17826 5.25 5.25ZM17.1133 8.022L17.1868 8.078C17.9293 8.62839 18.8593 8.86273 19.774 8.72989C20.6887 8.59706 21.5136 8.10782 22.0689 7.36896C22.6242 6.6301 22.8647 5.70159 22.7379 4.78608C22.6111 3.87056 22.1273 3.04236 21.3921 2.48222C20.6569 1.92208 19.73 1.67548 18.8137 1.79623C17.8974 1.91698 17.066 2.39528 16.501 3.12675C15.936 3.85822 15.6833 4.78347 15.798 5.70058C15.9127 6.61769 16.3855 7.45221 17.1133 8.022ZM10.969 10.5C11.1888 10.0838 11.4903 9.71618 11.8555 9.41918C12.2206 9.12218 12.6419 8.90188 13.0942 8.77147C13.5464 8.64106 14.0204 8.6032 14.4876 8.66018C14.9548 8.71715 15.4057 8.86778 15.8134 9.10305C16.2211 9.33833 16.5771 9.65341 16.8602 10.0295C17.1433 10.4055 17.3476 10.8348 17.4609 11.2916C17.5743 11.7485 17.5943 12.2235 17.5198 12.6882C17.4454 13.153 17.2779 13.598 17.0275 13.9965C16.5458 14.7632 15.7856 15.3134 14.9067 15.5315C14.0279 15.7495 13.0987 15.6184 12.3144 15.1658C11.5302 14.7132 10.9519 13.9743 10.701 13.1042C10.4501 12.2341 10.5461 11.3007 10.969 10.5ZM4.375 10.5H9.0475C8.73592 11.3881 8.668 12.3436 8.85081 13.2669C9.03363 14.1901 9.46049 15.0476 10.087 15.75H9.625C8.7227 15.7496 7.84236 16.0282 7.10457 16.5477C6.36678 17.0671 5.80764 17.8019 5.50375 18.6515C4.91597 18.4163 4.36587 18.0961 3.871 17.7013C2.555 16.6425 1.75 15.078 1.75 13.125C1.75 12.4288 2.02656 11.7611 2.51884 11.2688C3.01113 10.7766 3.67881 10.5 4.375 10.5ZM18.375 15.75C20.2738 15.75 21.8907 16.9592 22.4963 18.6515C23.0912 18.4083 23.6408 18.0915 24.129 17.7013C25.445 16.6425 26.25 15.078 26.25 13.125C26.25 12.4288 25.9734 11.7611 25.4812 11.2688C24.9889 10.7766 24.3212 10.5 23.625 10.5H18.9525C19.145 11.0477 19.25 11.6375 19.25 12.25C19.25 13.5414 18.774 14.7875 17.913 15.75H18.375ZM20.8022 19.124C20.93 19.432 21 19.7715 21 20.125C21 22.078 20.1968 23.6425 18.879 24.7013C17.5823 25.7425 15.8427 26.25 14 26.25C12.1573 26.25 10.4177 25.7425 9.121 24.7013C7.805 23.6425 7 22.078 7 20.125C6.99908 19.78 7.06634 19.4383 7.19794 19.1194C7.32953 18.8005 7.52285 18.5107 7.76678 18.2668C8.01072 18.0228 8.30047 17.8295 8.61936 17.6979C8.93826 17.5663 9.28002 17.4991 9.625 17.5H18.375C18.8949 17.4999 19.4032 17.6542 19.8353 17.9433C20.2674 18.2324 20.604 18.6434 20.8022 19.124Z" fill="#C29818"/>
</svg>
