<svg width="14" height="14" viewBox="0 0 14 14" fill="none" xmlns="http://www.w3.org/2000/svg">
<g clip-path="url(#clip0_2012_3141)">
<mask id="mask0_2012_3141" style="mask-type:luminance" maskUnits="userSpaceOnUse" x="0" y="0" width="14" height="14">
<path d="M6.99984 12.8337C7.76602 12.8346 8.52484 12.6842 9.2327 12.3909C9.94056 12.0977 10.5835 11.6675 11.1246 11.1251C11.667 10.584 12.0972 9.94104 12.3904 9.23319C12.6837 8.52533 12.8341 7.76651 12.8332 7.00033C12.8341 6.23415 12.6837 5.47533 12.3904 4.76747C12.0972 4.05962 11.667 3.41667 11.1246 2.87558C10.5835 2.33313 9.94056 1.90294 9.2327 1.60972C8.52484 1.31651 7.76602 1.16605 6.99984 1.167C6.23366 1.16605 5.47484 1.31651 4.76698 1.60972C4.05913 1.90294 3.41618 2.33313 2.87509 2.87558C2.33264 3.41667 1.90245 4.05962 1.60923 4.76747C1.31602 5.47533 1.16556 6.23415 1.16651 7.00033C1.16556 7.76651 1.31602 8.52533 1.60923 9.23319C1.90245 9.94104 2.33264 10.584 2.87509 11.1251C3.41618 11.6675 4.05913 12.0977 4.76698 12.3909C5.47484 12.6842 6.23366 12.8346 6.99984 12.8337Z" fill="white" stroke="white" stroke-width="1.2" stroke-linejoin="round"/>
<path d="M4.6665 7L6.4165 8.75L9.9165 5.25" stroke="black" stroke-width="1.2" stroke-linecap="round" stroke-linejoin="round"/>
</mask>
<g mask="url(#mask0_2012_3141)">
<path d="M0 0H14V14H0V0Z" fill="#C29818"/>
</g>
</g>
<defs>
<clipPath id="clip0_2012_3141">
<rect width="14" height="14" fill="white"/>
</clipPath>
</defs>
</svg>
