<svg width="55" height="55" viewBox="0 0 55 55" fill="none" xmlns="http://www.w3.org/2000/svg">
<g opacity="0.7" clip-path="url(#clip0_697_2935)">
<path d="M46.1249 34.375C47.2295 34.375 48.1249 35.2704 48.1249 36.375V39.25C48.1249 40.3546 49.0204 41.25 50.1249 41.25H52.9999C54.1045 41.25 54.9999 42.1454 54.9999 43.25V43.8333C54.9999 44.9379 54.1045 45.8333 52.9999 45.8333H50.1249C49.0204 45.8333 48.1249 46.7288 48.1249 47.8333V50.7083C48.1249 51.8129 47.2295 52.7083 46.1249 52.7083H45.5416C44.437 52.7083 43.5416 51.8129 43.5416 50.7083V47.8333C43.5416 46.7288 42.6462 45.8333 41.5416 45.8333H38.6666C37.562 45.8333 36.6666 44.9379 36.6666 43.8333V43.25C36.6666 42.1454 37.562 41.25 38.6666 41.25H41.5416C42.6462 41.25 43.5416 40.3546 43.5416 39.25V36.375C43.5416 35.2704 44.437 34.375 45.5416 34.375H46.1249ZM48.1433 6.875C49.3991 6.875 50.4166 7.89479 50.4166 9.15062V27.7917C50.4166 28.8962 49.5212 29.7917 48.4166 29.7917H47.8333C46.7287 29.7917 45.8333 28.8962 45.8333 27.7917V13.4583C45.8333 12.3538 44.9378 11.4583 43.8333 11.4583H11.1666C10.062 11.4583 9.16659 12.3538 9.16659 13.4583V38.7113C9.16659 40.493 11.3208 41.3854 12.5807 40.1256L30.669 22.0391C31.4501 21.2581 32.7164 21.2581 33.4974 22.0391L38.3725 26.9142C38.7475 27.2893 38.9583 27.798 38.9583 28.3284V29.1547C38.9583 30.9365 36.804 31.8288 35.544 30.5689L33.4973 28.5221C32.7163 27.7412 31.4501 27.7411 30.669 28.5219L19.0605 40.1273C17.8003 41.3871 18.6926 43.5417 20.4745 43.5417H30.0833C31.1878 43.5417 32.0833 44.4371 32.0833 45.5417V46.125C32.0833 47.2296 31.1878 48.125 30.0833 48.125H6.85659C6.25345 48.1244 5.67522 47.8844 5.24896 47.4577C4.82269 47.031 4.58325 46.4525 4.58325 45.8494V9.15062C4.58745 8.54878 4.82823 7.97275 5.25359 7.54696C5.67896 7.12117 6.25475 6.8798 6.85659 6.875H48.1433ZM18.3333 16.0417C19.5488 16.0417 20.7146 16.5246 21.5742 17.3841C22.4337 18.2436 22.9166 19.4094 22.9166 20.625C22.9166 21.8406 22.4337 23.0064 21.5742 23.8659C20.7146 24.7254 19.5488 25.2083 18.3333 25.2083C17.1177 25.2083 15.9519 24.7254 15.0923 23.8659C14.2328 23.0064 13.7499 21.8406 13.7499 20.625C13.7499 19.4094 14.2328 18.2436 15.0923 17.3841C15.9519 16.5246 17.1177 16.0417 18.3333 16.0417Z" fill="#1B4965"/>
</g>
<defs>
<clipPath id="clip0_697_2935">
<rect width="55" height="55" fill="white"/>
</clipPath>
</defs>
</svg>
