<svg width="14" height="16" viewBox="0 0 14 16" fill="none" xmlns="http://www.w3.org/2000/svg">
<path d="M4.808 12.5C4.808 12.7761 5.03186 13 5.308 13C5.58414 13 5.808 12.7761 5.808 12.5V4.49998C5.808 4.22384 5.58414 3.99998 5.308 3.99998C5.03186 3.99998 4.808 4.22384 4.808 4.49998V12.5ZM8.192 12.5C8.192 12.7761 8.41586 13 8.692 13C8.96814 13 9.192 12.7761 9.192 12.5V4.49998C9.192 4.22384 8.96814 3.99998 8.692 3.99998C8.41586 3.99998 8.192 4.22384 8.192 4.49998V12.5ZM3 16C1.89543 16 1 15.1046 1 14V2.49998C1 2.22384 0.776142 1.99998 0.5 1.99998C0.223858 1.99998 0 1.77612 0 1.49998C0 1.22384 0.223858 0.99998 0.5 0.99998H3.615C3.82763 0.99998 4 0.82761 4 0.61498C4 0.402351 4.17237 0.22998 4.385 0.22998H9.615C9.82763 0.22998 10 0.402351 10 0.61498C10 0.82761 10.1724 0.99998 10.385 0.99998H13.5C13.7761 0.99998 14 1.22384 14 1.49998C14 1.77612 13.7761 1.99998 13.5 1.99998C13.2239 1.99998 13 2.22384 13 2.49998V14C13 15.1046 12.1046 16 11 16H3Z" fill="#C29818"/>
</svg>
