<svg width="15" height="15" viewBox="0 0 15 15" fill="none" xmlns="http://www.w3.org/2000/svg">
<path d="M2.49683 10.7543V12.1874C2.49683 12.2703 2.52975 12.3498 2.58836 12.4084C2.64696 12.467 2.72645 12.4999 2.80933 12.4999H4.24558C4.3283 12.4999 4.40764 12.4671 4.4662 12.4087L10.3712 6.50366L8.4962 4.62866L2.5887 10.5337C2.53005 10.5921 2.49701 10.6715 2.49683 10.7543ZM9.26995 3.85428L11.145 5.72928L12.0575 4.81678C12.1746 4.69958 12.2404 4.54063 12.2404 4.37491C12.2404 4.20918 12.1746 4.05024 12.0575 3.93303L11.0668 2.94178C10.9496 2.82461 10.7907 2.75879 10.625 2.75879C10.4592 2.75879 10.3003 2.82461 10.1831 2.94178L9.26995 3.85428Z" fill="#1B4965"/>
</svg>
