<svg width="30" height="30" viewBox="0 0 30 30" fill="none" xmlns="http://www.w3.org/2000/svg">
<path d="M1.3125 26.25V22.75C1.3125 22.0625 1.48958 21.4166 1.84375 20.8125C2.19792 20.2083 2.6875 19.75 3.3125 19.4375C4.375 18.8958 5.57292 18.4375 6.90625 18.0625C8.23958 17.6875 9.70833 17.5 11.3125 17.5C12.9167 17.5 14.3854 17.6875 15.7188 18.0625C17.0521 18.4375 18.25 18.8958 19.3125 19.4375C19.9375 19.75 20.4271 20.2083 20.7812 20.8125C21.1354 21.4166 21.3125 22.0625 21.3125 22.75V26.25H1.3125ZM11.3125 16.25C9.9375 16.25 8.76042 15.7604 7.78125 14.7812C6.80208 13.8021 6.3125 12.625 6.3125 11.25H6C5.8125 11.25 5.66167 11.1929 5.5475 11.0787C5.43333 10.9646 5.37583 10.8133 5.375 10.625C5.37417 10.4366 5.43167 10.2854 5.5475 10.1712C5.66333 10.0571 5.81417 9.99997 6 9.99997H6.3125C6.3125 9.06247 6.54167 8.21872 7 7.46872C7.45833 6.71872 8.0625 6.12497 8.8125 5.68747V6.87497C8.8125 7.06247 8.87 7.21372 8.985 7.32872C9.1 7.44372 9.25083 7.5008 9.4375 7.49997C9.62417 7.49914 9.77542 7.44205 9.89125 7.32872C10.0071 7.21539 10.0642 7.06414 10.0625 6.87497V5.18747C10.25 5.12497 10.4479 5.0783 10.6562 5.04747C10.8646 5.01664 11.0833 5.0008 11.3125 4.99997C11.5417 4.99914 11.7604 5.01497 11.9688 5.04747C12.1771 5.07997 12.375 5.12664 12.5625 5.18747V6.87497C12.5625 7.06247 12.62 7.21372 12.735 7.32872C12.85 7.44372 13.0008 7.5008 13.1875 7.49997C13.3742 7.49914 13.5254 7.44205 13.6412 7.32872C13.7571 7.21539 13.8142 7.06414 13.8125 6.87497V5.68747C14.5625 6.12497 15.1667 6.71872 15.625 7.46872C16.0833 8.21872 16.3125 9.06247 16.3125 9.99997H16.625C16.8125 9.99997 16.9637 10.0575 17.0787 10.1725C17.1937 10.2875 17.2508 10.4383 17.25 10.625C17.2492 10.8116 17.1921 10.9629 17.0787 11.0787C16.9654 11.1946 16.8142 11.2516 16.625 11.25H16.3125C16.3125 12.625 15.8229 13.8021 14.8438 14.7812C13.8646 15.7604 12.6875 16.25 11.3125 16.25ZM11.3125 13.75C12 13.75 12.5888 13.5054 13.0788 13.0162C13.5688 12.5271 13.8133 11.9383 13.8125 11.25H8.8125C8.8125 11.9375 9.0575 12.5262 9.5475 13.0162C10.0375 13.5062 10.6258 13.7508 11.3125 13.75Z" fill="#1B4965"/>
</svg>
