<svg width="24" height="24" viewBox="0 0 24 24" fill="none" xmlns="http://www.w3.org/2000/svg">
<path d="M7.52523 17.9432C7.15675 18.2834 6.58879 18.2834 6.22032 17.9432C5.80769 17.5623 5.80769 16.9105 6.22032 16.5296L10.3313 12.7348C10.7602 12.3389 10.7602 11.6612 10.3313 11.2652L6.22032 7.47051C5.80769 7.08962 5.80769 6.43774 6.22032 6.05686C6.58879 5.71672 7.15675 5.71672 7.52523 6.05686L11.8672 10.0648C12.2503 10.4184 12.8407 10.4184 13.2238 10.0648L17.5658 6.05686C17.9342 5.71672 18.5022 5.71672 18.8707 6.05686C19.2833 6.43774 19.2833 7.08962 18.8707 7.47051L14.7597 11.2652C14.3308 11.6612 14.3308 12.3389 14.7597 12.7348L18.8707 16.5296C19.2833 16.9105 19.2833 17.5623 18.8707 17.9432C18.5022 18.2834 17.9342 18.2834 17.5658 17.9432L13.2238 13.9352C12.8407 13.5816 12.2503 13.5816 11.8672 13.9352L7.52523 17.9432Z" fill="#1B4965"/>
</svg>
