<svg width="22" height="23" viewBox="0 0 22 23" fill="none" xmlns="http://www.w3.org/2000/svg">
<path fill-rule="evenodd" clip-rule="evenodd" d="M17.8483 4.28241C20.0306 5.55428 21.566 8.13657 21.4983 11.1491C21.4139 14.9095 18.4879 18.2262 13.4994 21.1887C12.7598 21.6282 11.9806 22.198 11.0837 22.198C10.2035 22.198 9.39102 21.6178 8.66706 21.1876C3.6806 18.2262 0.753521 14.9084 0.669146 11.1491C0.601438 8.13657 2.13685 5.55532 4.31915 4.28241C6.36081 3.09387 8.9254 3.08657 11.0837 4.84178C13.2421 3.08657 15.8066 3.09283 17.8483 4.28241ZM16.7994 6.08345C15.3473 5.23762 13.5327 5.26782 11.9619 6.85741C11.8467 6.973 11.7098 7.06471 11.5591 7.12729C11.4085 7.18987 11.2469 7.22208 11.0837 7.22208C10.9206 7.22208 10.759 7.18987 10.6083 7.12729C10.4576 7.06471 10.3208 6.973 10.2056 6.85741C8.63477 5.26782 6.82019 5.23762 5.3681 6.08345C3.86394 6.96053 2.70144 8.82095 2.75248 11.1043C2.81081 13.7199 4.87748 16.5147 9.73165 19.398C10.1566 19.6512 10.6004 19.9751 11.0837 20.1095C11.5671 19.9751 12.0108 19.6512 12.4358 19.398C17.29 16.5147 19.3566 13.7209 19.415 11.1032C19.4671 8.82199 18.3035 6.96053 16.7994 6.08345Z" fill="#1B4965"/>
</svg>
