<svg width="25" height="25" viewBox="0 0 25 25" fill="none" xmlns="http://www.w3.org/2000/svg">
<path d="M17.7087 18.7502C18.2612 18.7502 18.7911 18.9697 19.1818 19.3604C19.5725 19.7511 19.792 20.281 19.792 20.8335C19.792 21.386 19.5725 21.9159 19.1818 22.3066C18.7911 22.6973 18.2612 22.9168 17.7087 22.9168C17.1561 22.9168 16.6262 22.6973 16.2355 22.3066C15.8448 21.9159 15.6253 21.386 15.6253 20.8335C15.6253 19.6772 16.5524 18.7502 17.7087 18.7502ZM1.04199 2.0835H4.44824L5.42741 4.16683H20.8337C21.1099 4.16683 21.3749 4.27658 21.5702 4.47193C21.7656 4.66728 21.8753 4.93223 21.8753 5.2085C21.8753 5.38558 21.8232 5.56266 21.7503 5.72933L18.0212 12.4689C17.667 13.1043 16.9795 13.5418 16.1982 13.5418H8.43783L7.50033 15.2397L7.46908 15.3647C7.46908 15.4338 7.49651 15.5001 7.54535 15.5489C7.59419 15.5977 7.66043 15.6252 7.72949 15.6252H19.792V17.7085H7.29199C6.73946 17.7085 6.20955 17.489 5.81885 17.0983C5.42815 16.7076 5.20866 16.1777 5.20866 15.6252C5.20866 15.2606 5.30241 14.9168 5.45866 14.6252L6.87533 12.0731L3.12533 4.16683H1.04199V2.0835ZM7.29199 18.7502C7.84453 18.7502 8.37443 18.9697 8.76513 19.3604C9.15583 19.7511 9.37533 20.281 9.37533 20.8335C9.37533 21.386 9.15583 21.9159 8.76513 22.3066C8.37443 22.6973 7.84453 22.9168 7.29199 22.9168C6.73946 22.9168 6.20955 22.6973 5.81885 22.3066C5.42815 21.9159 5.20866 21.386 5.20866 20.8335C5.20866 19.6772 6.13574 18.7502 7.29199 18.7502ZM16.667 11.4585L19.5628 6.25016H6.39616L8.85449 11.4585H16.667Z" fill="#1B4965"/>
<circle cx="19.5" cy="4.5" r="4.5" fill="#C29818"/>
</svg>
