<svg width="25" height="25" viewBox="0 0 25 25" fill="none" xmlns="http://www.w3.org/2000/svg">
<path d="M5.2085 12.5001V4.16675M19.7918 20.8334V17.7084M5.2085 20.8334V16.6667M19.7918 13.5417V4.16675M12.5002 7.29175V4.16675M12.5002 20.8334V11.4584" stroke="#1B4965" stroke-linecap="round"/>
<path d="M5.20833 16.6667C6.35893 16.6667 7.29167 15.7339 7.29167 14.5833C7.29167 13.4327 6.35893 12.5 5.20833 12.5C4.05774 12.5 3.125 13.4327 3.125 14.5833C3.125 15.7339 4.05774 16.6667 5.20833 16.6667Z" stroke="#1B4965" stroke-linecap="round"/>
<path d="M12.4998 11.4584C13.6504 11.4584 14.5832 10.5257 14.5832 9.37508C14.5832 8.22449 13.6504 7.29175 12.4998 7.29175C11.3492 7.29175 10.4165 8.22449 10.4165 9.37508C10.4165 10.5257 11.3492 11.4584 12.4998 11.4584Z" stroke="#1B4965" stroke-linecap="round"/>
<path d="M19.7918 17.7084C20.9424 17.7084 21.8752 16.7757 21.8752 15.6251C21.8752 14.4745 20.9424 13.5417 19.7918 13.5417C18.6412 13.5417 17.7085 14.4745 17.7085 15.6251C17.7085 16.7757 18.6412 17.7084 19.7918 17.7084Z" stroke="#1B4965" stroke-linecap="round"/>
</svg>
