<svg width="22" height="22" viewBox="0 0 22 22" fill="none" xmlns="http://www.w3.org/2000/svg">
<g opacity="0.9">
<path d="M18.3333 13.75C18.8395 13.75 19.2499 14.1604 19.2499 14.6667V15.5C19.2499 16.0523 19.6976 16.5 20.2499 16.5H21.0833C21.5895 16.5 21.9999 16.9104 21.9999 17.4167C21.9999 17.9229 21.5895 18.3333 21.0833 18.3333H20.2499C19.6976 18.3333 19.2499 18.781 19.2499 19.3333V20.1667C19.2499 20.6729 18.8395 21.0833 18.3333 21.0833C17.827 21.0833 17.4166 20.6729 17.4166 20.1667V19.3333C17.4166 18.781 16.9689 18.3333 16.4166 18.3333H15.5833C15.077 18.3333 14.6666 17.9229 14.6666 17.4167C14.6666 16.9104 15.077 16.5 15.5833 16.5H16.4166C16.9689 16.5 17.4166 16.0523 17.4166 15.5V14.6667C17.4166 14.1604 17.827 13.75 18.3333 13.75ZM19.2572 2.75C19.7596 2.75 20.1666 3.15792 20.1666 3.66025V11C20.1666 11.5063 19.7562 11.9167 19.2499 11.9167C18.7437 11.9167 18.3333 11.5063 18.3333 11V5.58333C18.3333 5.03105 17.8855 4.58333 17.3333 4.58333H4.66659C4.1143 4.58333 3.66659 5.03105 3.66659 5.58333V15.0017C3.66659 15.8926 4.74368 16.3388 5.37366 15.7088L12.1261 8.95704C12.5167 8.56655 13.1498 8.56656 13.5403 8.95707L15.3147 10.7315C15.4867 10.9034 15.5833 11.1366 15.5833 11.3798C15.5833 12.1966 14.5957 12.6057 14.0181 12.0281L13.5403 11.5503C13.1498 11.1598 12.5167 11.1597 12.1261 11.5502L7.96568 15.7095C7.33558 16.3394 7.78172 17.4167 8.67269 17.4167H11.9166C12.4228 17.4167 12.8333 17.8271 12.8333 18.3333C12.8333 18.8396 12.4228 19.25 11.9166 19.25H2.74259C2.50133 19.2498 2.27004 19.1537 2.09953 18.9831C1.92903 18.8124 1.83325 18.581 1.83325 18.3398V3.66025C1.83493 3.41951 1.93124 3.1891 2.10139 3.01878C2.27153 2.84847 2.50185 2.75192 2.74259 2.75H19.2572ZM7.33325 6.41667C7.81948 6.41667 8.2858 6.60982 8.62961 6.95364C8.97343 7.29745 9.16658 7.76377 9.16658 8.25C9.16658 8.73623 8.97343 9.20255 8.62961 9.54636C8.2858 9.89018 7.81948 10.0833 7.33325 10.0833C6.84702 10.0833 6.38071 9.89018 6.03689 9.54636C5.69307 9.20255 5.49992 8.73623 5.49992 8.25C5.49992 7.76377 5.69307 7.29745 6.03689 6.95364C6.38071 6.60982 6.84702 6.41667 7.33325 6.41667Z" fill="#1B4965"/>
</g>
</svg>
