<svg width="100" height="100" viewBox="0 0 100 100" fill="none" xmlns="http://www.w3.org/2000/svg">
<path d="M16.6666 47.9167L14.6458 48.4208C12.8429 48.8715 11.2424 49.9118 10.0987 51.3764C8.95493 52.841 8.33353 54.6459 8.33325 56.5042V64.325C8.33353 66.1833 8.95493 67.9882 10.0987 69.4528C11.2424 70.9174 12.8429 71.9577 14.6458 72.4083L21.8958 74.2208C22.2642 74.3126 22.6486 74.3192 23.02 74.2402C23.3913 74.1613 23.7398 73.9988 24.039 73.765C24.3382 73.5313 24.5802 73.2325 24.7467 72.8913C24.9132 72.5501 24.9998 72.1755 24.9999 71.7958V49.0333C24.9999 48.6532 24.9133 48.2781 24.7466 47.9365C24.5798 47.595 24.3374 47.2959 24.0377 47.0621C23.738 46.8283 23.3889 46.6659 23.0171 46.5873C22.6452 46.5086 22.2603 46.5158 21.8916 46.6083L16.6666 47.9167ZM16.6666 47.9167V45.8333C16.6666 36.9928 20.1785 28.5143 26.4297 22.2631C32.6809 16.0119 41.1594 12.5 49.9999 12.5C58.8405 12.5 67.3189 16.0119 73.5702 22.2631C79.8214 28.5143 83.3333 36.9928 83.3333 45.8333V47.9167M83.3333 47.9167L85.3541 48.4208C87.1569 48.8715 88.7574 49.9118 89.9012 51.3764C91.0449 52.841 91.6663 54.6459 91.6666 56.5042V64.325C91.6663 66.1833 91.0449 67.9882 89.9012 69.4528C88.7574 70.9174 87.1569 71.9577 85.3541 72.4083L83.3333 72.9167M83.3333 47.9167L78.1041 46.6083C77.7357 46.5166 77.3512 46.5099 76.9799 46.5889C76.6085 46.6679 76.26 46.8304 75.9609 47.0641C75.6617 47.2979 75.4197 47.5966 75.2532 47.9378C75.0867 48.279 75.0001 48.6537 74.9999 49.0333V71.7958C75.0001 72.1755 75.0867 72.5501 75.2532 72.8913C75.4197 73.2325 75.6617 73.5313 75.9609 73.765C76.26 73.9988 76.6085 74.1613 76.9799 74.2402C77.3512 74.3192 77.7357 74.3126 78.1041 74.2208L83.3333 72.9167M83.3333 72.9167V77.0833C83.3333 79.2935 82.4553 81.4131 80.8925 82.9759C79.3297 84.5387 77.2101 85.4167 74.9999 85.4167H62.4999M62.4999 85.4167C62.4999 83.7591 61.8414 82.1694 60.6693 80.9972C59.4972 79.8251 57.9075 79.1667 56.2499 79.1667H43.7499C42.0923 79.1667 40.5026 79.8251 39.3305 80.9972C38.1584 82.1694 37.4999 83.7591 37.4999 85.4167C37.4999 87.0743 38.1584 88.664 39.3305 89.8361C40.5026 91.0082 42.0923 91.6667 43.7499 91.6667H56.2499C57.9075 91.6667 59.4972 91.0082 60.6693 89.8361C61.8414 88.664 62.4999 87.0743 62.4999 85.4167Z" stroke="url(#paint0_linear_2842_4062)" stroke-width="3"/>
<defs>
<linearGradient id="paint0_linear_2842_4062" x1="49.9999" y1="12.5" x2="49.9999" y2="91.6667" gradientUnits="userSpaceOnUse">
<stop stop-color="#1B4965"/>
<stop offset="1" stop-color="#C29818"/>
</linearGradient>
</defs>
</svg>
