<svg width="28" height="28" viewBox="0 0 28 28" fill="none" xmlns="http://www.w3.org/2000/svg">
<path d="M10.6663 23.3333C11.2186 23.3333 11.6663 22.8856 11.6663 22.3333V17.3333C11.6663 16.781 12.1141 16.3333 12.6663 16.3333H15.333C15.8853 16.3333 16.333 16.781 16.333 17.3333V22.3333C16.333 22.8856 16.7807 23.3333 17.333 23.3333H21.1663C21.7186 23.3333 22.1663 22.8856 22.1663 22.3333V14.9706C22.1663 14.4346 22.6009 14 23.137 14C24.0265 14 24.4475 12.903 23.7863 12.3079L14.6686 4.10207C14.2883 3.75979 13.711 3.75979 13.3307 4.10207L4.21308 12.3079C3.55188 12.903 3.97284 14 4.86239 14C5.39845 14 5.83301 14.4346 5.83301 14.9706V22.3333C5.83301 22.8856 6.28072 23.3333 6.83301 23.3333H10.6663Z" fill="#1B4965"/>
</svg>
