<svg width="30" height="30" viewBox="0 0 30 30" fill="none" xmlns="http://www.w3.org/2000/svg">
<path d="M17.5 2.5H7.5C6.83696 2.5 6.20107 2.76339 5.73223 3.23223C5.26339 3.70107 5 4.33696 5 5V25C5 25.663 5.26339 26.2989 5.73223 26.7678C6.20107 27.2366 6.83696 27.5 7.5 27.5H22.5C23.163 27.5 23.7989 27.2366 24.2678 26.7678C24.7366 26.2989 25 25.663 25 25V10L17.5 2.5ZM11.5488 20.5575C11.5488 21.9975 10.86 22.5 9.75125 22.5C9.48875 22.5 9.14375 22.455 8.92 22.3787L9.04625 21.4575C9.205 21.51 9.4075 21.5475 9.6325 21.5475C10.1125 21.5475 10.4113 21.33 10.4113 20.5425V17.3637H11.55L11.5488 20.5575ZM15.6663 20.1012C15.275 20.4675 14.7 20.6338 14.025 20.6338C13.875 20.6338 13.74 20.625 13.635 20.61V22.4163H12.5025V17.4312C13.0138 17.3541 13.5305 17.3194 14.0475 17.3275C14.7512 17.3275 15.2538 17.4613 15.59 17.7313C15.9138 17.9863 16.1312 18.4063 16.1312 18.9013C16.1312 19.3963 15.965 19.8162 15.6663 20.1012ZM21.08 22.185C20.73 22.305 20.0613 22.47 19.3938 22.47C18.4725 22.47 17.805 22.2375 17.34 21.7875C16.8763 21.3525 16.6213 20.6938 16.6275 19.9513C16.6363 18.2713 17.8563 17.3125 19.5138 17.3125C20.165 17.3125 20.6688 17.4413 20.915 17.56L20.6763 18.4738C20.3988 18.3538 20.055 18.2562 19.5 18.2562C18.5488 18.2562 17.8275 18.7963 17.8275 19.8913C17.8275 20.9325 18.4813 21.5475 19.4163 21.5475C19.68 21.5475 19.8888 21.5175 19.98 21.4713V20.4137H19.2V19.5225H21.08V22.185ZM17.5 11.25H16.25V5L22.5 11.25H17.5Z" fill="#1B4965"/>
<path d="M14.1063 18.1899C13.8738 18.1899 13.7163 18.2124 13.635 18.2349V19.7262C13.7313 19.7487 13.8525 19.7549 14.0188 19.7549C14.6238 19.7549 14.9988 19.4474 14.9988 18.9312C14.9988 18.4662 14.6775 18.1899 14.1063 18.1899Z" fill="#1B4965"/>
</svg>
