<svg width="25" height="25" viewBox="0 0 25 25" fill="none" xmlns="http://www.w3.org/2000/svg">
<path d="M5.20801 12.5001V4.16675M19.7913 20.8334V17.7084M5.20801 20.8334V16.6667M19.7913 13.5417V4.16675M12.4997 7.29175V4.16675M12.4997 20.8334V11.4584" stroke="#1B4965" stroke-linecap="round"/>
<path d="M5.20833 16.6667C6.35893 16.6667 7.29167 15.7339 7.29167 14.5833C7.29167 13.4327 6.35893 12.5 5.20833 12.5C4.05774 12.5 3.125 13.4327 3.125 14.5833C3.125 15.7339 4.05774 16.6667 5.20833 16.6667Z" stroke="#1B4965" stroke-linecap="round"/>
<path d="M12.5003 11.4584C13.6509 11.4584 14.5837 10.5257 14.5837 9.37508C14.5837 8.22449 13.6509 7.29175 12.5003 7.29175C11.3497 7.29175 10.417 8.22449 10.417 9.37508C10.417 10.5257 11.3497 11.4584 12.5003 11.4584Z" stroke="#1B4965" stroke-linecap="round"/>
<path d="M19.7913 17.7084C20.9419 17.7084 21.8747 16.7757 21.8747 15.6251C21.8747 14.4745 20.9419 13.5417 19.7913 13.5417C18.6407 13.5417 17.708 14.4745 17.708 15.6251C17.708 16.7757 18.6407 17.7084 19.7913 17.7084Z" stroke="#1B4965" stroke-linecap="round"/>
</svg>
