<svg width="21" height="19" viewBox="0 0 21 19" fill="none" xmlns="http://www.w3.org/2000/svg">
<path d="M3.20801 9.50008V1.16675M17.7913 17.8334V14.7084M3.20801 17.8334V13.6667M17.7913 10.5417V1.16675M10.4997 4.29175V1.16675M10.4997 17.8334V8.45841" stroke="#1B4965" stroke-linecap="round"/>
<path d="M3.20833 13.6667C4.35893 13.6667 5.29167 12.7339 5.29167 11.5833C5.29167 10.4327 4.35893 9.5 3.20833 9.5C2.05774 9.5 1.125 10.4327 1.125 11.5833C1.125 12.7339 2.05774 13.6667 3.20833 13.6667Z" stroke="#1B4965" stroke-linecap="round"/>
<path d="M10.5003 8.45841C11.6509 8.45841 12.5837 7.52567 12.5837 6.37508C12.5837 5.22449 11.6509 4.29175 10.5003 4.29175C9.34973 4.29175 8.41699 5.22449 8.41699 6.37508C8.41699 7.52567 9.34973 8.45841 10.5003 8.45841Z" stroke="#1B4965" stroke-linecap="round"/>
<path d="M17.7913 14.7084C18.9419 14.7084 19.8747 13.7757 19.8747 12.6251C19.8747 11.4745 18.9419 10.5417 17.7913 10.5417C16.6407 10.5417 15.708 11.4745 15.708 12.6251C15.708 13.7757 16.6407 14.7084 17.7913 14.7084Z" stroke="#1B4965" stroke-linecap="round"/>
</svg>
