<svg width="25" height="25" viewBox="0 0 25 25" fill="none" xmlns="http://www.w3.org/2000/svg">
<path d="M7.5 5.9375C7.5 5.68886 7.59877 5.4504 7.77459 5.27459C7.9504 5.09877 8.18886 5 8.4375 5H21.5625C21.8111 5 22.0496 5.09877 22.2254 5.27459C22.4012 5.4504 22.5 5.68886 22.5 5.9375C22.5 6.18614 22.4012 6.4246 22.2254 6.60041C22.0496 6.77623 21.8111 6.875 21.5625 6.875H8.4375C8.18886 6.875 7.9504 6.77623 7.77459 6.60041C7.59877 6.4246 7.5 6.18614 7.5 5.9375ZM8.75 18.4375C8.75 18.1889 8.84877 17.9504 9.02459 17.7746C9.2004 17.5988 9.43886 17.5 9.6875 17.5H21.5625C21.8111 17.5 22.0496 17.5988 22.2254 17.7746C22.4012 17.9504 22.5 18.1889 22.5 18.4375C22.5 18.6861 22.4012 18.9246 22.2254 19.1004C22.0496 19.2762 21.8111 19.375 21.5625 19.375H9.6875C9.43886 19.375 9.2004 19.2762 9.02459 19.1004C8.84877 18.9246 8.75 18.6861 8.75 18.4375ZM3.4375 11.25C3.18886 11.25 2.9504 11.3488 2.77459 11.5246C2.59877 11.7004 2.5 11.9389 2.5 12.1875C2.5 12.4361 2.59877 12.6746 2.77459 12.8504C2.9504 13.0262 3.18886 13.125 3.4375 13.125H21.5625C21.8111 13.125 22.0496 13.0262 22.2254 12.8504C22.4012 12.6746 22.5 12.4361 22.5 12.1875C22.5 11.9389 22.4012 11.7004 22.2254 11.5246C22.0496 11.3488 21.8111 11.25 21.5625 11.25H3.4375Z" fill="#1B4965"/>
</svg>
