<svg width="18" height="18" viewBox="0 0 18 18" fill="none" xmlns="http://www.w3.org/2000/svg">
<path fill-rule="evenodd" clip-rule="evenodd" d="M9 17.25C10.0834 17.25 11.1562 17.0366 12.1571 16.622C13.1581 16.2074 14.0675 15.5997 14.8336 14.8336C15.5997 14.0675 16.2074 13.1581 16.622 12.1571C17.0366 11.1562 17.25 10.0834 17.25 9C17.25 7.91659 17.0366 6.8438 16.622 5.84286C16.2074 4.84193 15.5997 3.93245 14.8336 3.16637C14.0675 2.40029 13.1581 1.7926 12.1571 1.37799C11.1562 0.963392 10.0834 0.75 9 0.75C6.81196 0.75 4.71354 1.61919 3.16637 3.16637C1.61919 4.71354 0.75 6.81196 0.75 9C0.75 11.188 1.61919 13.2865 3.16637 14.8336C4.71354 16.3808 6.81196 17.25 9 17.25ZM8.78733 12.3367L13.3707 6.83667L11.9627 5.66333L8.021 10.3924L5.98142 8.35192L4.68525 9.64808L7.43525 12.3981L8.14475 13.1076L8.78733 12.3367Z" fill="#1B4965"/>
</svg>
