<svg width="25" height="25" viewBox="0 0 25 25" fill="none" xmlns="http://www.w3.org/2000/svg">
<path d="M12.5 2.08301C10.5662 2.08301 8.7115 2.85123 7.34405 4.21869C5.9766 5.58614 5.20837 7.4408 5.20837 9.37467V13.0497C5.20852 13.2113 5.17108 13.3707 5.099 13.5153L3.31046 17.0913C3.22309 17.266 3.18183 17.4602 3.19061 17.6553C3.19939 17.8505 3.25791 18.0401 3.36061 18.2063C3.46331 18.3724 3.60678 18.5096 3.7774 18.6047C3.94802 18.6998 4.14012 18.7497 4.33546 18.7497H20.6646C20.86 18.7497 21.0521 18.6998 21.2227 18.6047C21.3933 18.5096 21.5368 18.3724 21.6395 18.2063C21.7422 18.0401 21.8007 17.8505 21.8095 17.6553C21.8182 17.4602 21.777 17.266 21.6896 17.0913L19.9021 13.5153C19.8297 13.3708 19.7919 13.2113 19.7917 13.0497V9.37467C19.7917 7.4408 19.0235 5.58614 17.656 4.21869C16.2886 2.85123 14.4339 2.08301 12.5 2.08301ZM12.5 21.8747C11.8535 21.875 11.2228 21.6748 10.6948 21.3017C10.1669 20.9286 9.76763 20.4009 9.55212 19.7913H15.448C15.2325 20.4009 14.8332 20.9286 14.3052 21.3017C13.7773 21.6748 13.1466 21.875 12.5 21.8747Z" fill="#1B4965"/>
</svg>
