<svg width="20" height="26" viewBox="0 0 20 26" fill="none" xmlns="http://www.w3.org/2000/svg">
<path d="M12.5 0.5H2.5C1.83696 0.5 1.20107 0.763392 0.732233 1.23223C0.263392 1.70107 0 2.33696 0 3V23C0 23.663 0.263392 24.2989 0.732233 24.7678C1.20107 25.2366 1.83696 25.5 2.5 25.5H17.5C18.163 25.5 18.7989 25.2366 19.2678 24.7678C19.7366 24.2989 20 23.663 20 23V8L12.5 0.5ZM6.8725 18.2375C6.48625 18.6 5.91625 18.7625 5.2525 18.7625C5.12378 18.7649 4.99506 18.7574 4.8675 18.74V20.5225H3.75V15.6025C4.25434 15.5275 4.76391 15.4932 5.27375 15.5C5.97 15.5 6.465 15.6325 6.79875 15.8988C7.11625 16.1512 7.33125 16.565 7.33125 17.0525C7.33 17.5425 7.1675 17.9563 6.8725 18.2375ZM11.6313 19.9312C11.1063 20.3675 10.3075 20.575 9.33125 20.575C8.74625 20.575 8.3325 20.5375 8.05125 20.5V15.6038C8.55578 15.5304 9.06518 15.4957 9.575 15.5C10.5212 15.5 11.1363 15.67 11.6163 16.0325C12.135 16.4175 12.46 17.0312 12.46 17.9125C12.46 18.8663 12.1112 19.525 11.6313 19.9312ZM16.25 16.4625H14.335V17.6012H16.125V18.5188H14.335V20.5237H13.2025V15.5375H16.25V16.4625ZM12.5 9.25H11.25V3L17.5 9.25H12.5Z" fill="#E21F1F"/>
</svg>
