<svg width="9" height="10" viewBox="0 0 9 10" fill="none" xmlns="http://www.w3.org/2000/svg">
<path d="M7.74967 5.58219H5.04134V8.49886C5.04134 8.65357 4.98427 8.80194 4.88269 8.91134C4.78111 9.02074 4.64333 9.08219 4.49967 9.08219C4.35602 9.08219 4.21824 9.02074 4.11666 8.91134C4.01508 8.80194 3.95801 8.65357 3.95801 8.49886V5.58219H1.24967C1.10602 5.58219 0.968241 5.52074 0.866658 5.41134C0.765076 5.30194 0.708008 5.15357 0.708008 4.99886C0.708008 4.84415 0.765076 4.69578 0.866658 4.58638C0.968241 4.47699 1.10602 4.41553 1.24967 4.41553H3.95801V1.49886C3.95801 1.34415 4.01508 1.19578 4.11666 1.08638C4.21824 0.976985 4.35602 0.915527 4.49967 0.915527C4.64333 0.915527 4.78111 0.976985 4.88269 1.08638C4.98427 1.19578 5.04134 1.34415 5.04134 1.49886V4.41553H7.74967C7.89333 4.41553 8.03111 4.47699 8.13269 4.58638C8.23427 4.69578 8.29134 4.84415 8.29134 4.99886C8.29134 5.15357 8.23427 5.30194 8.13269 5.41134C8.03111 5.52074 7.89333 5.58219 7.74967 5.58219Z" fill="#C29818"/>
</svg>
