<svg width="369" height="369" viewBox="0 0 369 369" fill="none" xmlns="http://www.w3.org/2000/svg">
<g clip-path="url(#clip0_1001_10817)">
<g opacity="0.9">
<path d="M23.8714 165.735C-7.54586 84.5937 94.5739 37.6684 153.479 46.6396C176.873 50.2043 186.3 57.58 209.412 48.8641C226.215 42.4822 234.766 22.835 253.329 18.4953C294.027 8.97716 336.977 46.676 346.751 81.1749C356.898 116.968 347.07 154.002 315.178 167.003C291.839 176.512 268.034 164.313 254.386 170.184C226.324 182.246 227.564 201.355 210.989 221.714C150.142 296.428 52.4077 239.446 23.8714 165.735Z" fill="#C29818"/>
</g>
<g opacity="0.9">
<path d="M23.8714 165.735C-7.54586 84.5937 94.5739 37.6684 153.479 46.6396C176.873 50.2043 186.3 57.58 209.412 48.8641C226.215 42.4822 234.766 22.835 253.329 18.4953C294.027 8.97716 336.977 46.676 346.751 81.1749C356.898 116.968 347.07 154.002 315.178 167.003C291.839 176.512 268.034 164.313 254.386 170.184C226.324 182.246 227.564 201.355 210.989 221.714C150.142 296.428 52.4077 239.446 23.8714 165.735Z" fill="white"/>
</g>
<g filter="url(#filter0_d_1001_10817)">
<path d="M183 363.5C275.232 363.5 350 359.135 350 353.75C350 348.365 275.232 344 183 344C90.7684 344 16 348.365 16 353.75C16 359.135 90.7684 363.5 183 363.5Z" fill="#F5F5F5"/>
</g>
<path d="M314.034 199.233H59.5629C58.7531 199.23 57.9772 198.908 57.4046 198.335C56.832 197.762 56.5093 196.986 56.5068 196.177C56.5093 195.367 56.832 194.591 57.4046 194.018C57.9772 193.446 58.7531 193.123 59.5629 193.121H314.034C314.844 193.123 315.619 193.446 316.192 194.018C316.765 194.591 317.087 195.367 317.09 196.177C317.087 196.986 316.765 197.762 316.192 198.335C315.619 198.908 314.844 199.23 314.034 199.233Z" fill="#1B4965"/>
<path opacity="0.3" d="M314.034 199.233H254.463C253.654 199.23 252.878 198.908 252.305 198.335C251.732 197.762 251.41 196.986 251.407 196.177C251.41 195.367 251.732 194.591 252.305 194.018C252.878 193.446 253.654 193.123 254.463 193.121H314.034C314.844 193.123 315.619 193.446 316.192 194.018C316.765 194.591 317.087 195.367 317.09 196.177C317.087 196.986 316.765 197.762 316.192 198.335C315.619 198.908 314.844 199.23 314.034 199.233Z" fill="#333533"/>
<path d="M307.573 206.896H111.865V228.197H307.573V206.896Z" fill="#333533"/>
<path opacity="0.1" d="M307.573 206.896H111.865V228.197H307.573V206.896Z" fill="white"/>
<path d="M304.728 334.507H310.583L310.344 199.233H302.231L304.728 334.507Z" fill="#333533"/>
<path opacity="0.1" d="M304.728 334.507H310.583L310.344 199.233H302.231L304.728 334.507Z" fill="white"/>
<path d="M250.765 334.507H244.9L258.153 199.233H266.265L250.765 334.507Z" fill="#333533"/>
<path opacity="0.2" d="M250.765 334.507H244.9L258.153 199.233H266.265L250.765 334.507Z" fill="white"/>
<path d="M109.827 334.507H115.682L115.444 199.233H107.331L109.827 334.507Z" fill="#333533"/>
<path opacity="0.1" d="M109.827 334.507H115.682L115.444 199.233H107.331L109.827 334.507Z" fill="white"/>
<path d="M55.8644 334.507H50L63.2522 199.233H71.365L55.8644 334.507Z" fill="#333533"/>
<path opacity="0.2" d="M55.8644 334.507H50L63.2522 199.233H71.365L55.8644 334.507Z" fill="white"/>
<path d="M220.69 193.121H207.181L201.775 166.708H215.285L220.69 193.121Z" fill="#333533"/>
<path d="M238.614 187.678H180.007C179.551 187.683 179.099 187.594 178.68 187.415C178.26 187.237 177.882 186.973 177.57 186.641C177.258 186.309 177.018 185.916 176.866 185.486C176.713 185.056 176.651 184.6 176.684 184.145L178.924 147.041C178.993 146.09 179.415 145.2 180.109 144.546C180.802 143.892 181.715 143.521 182.668 143.508H241.284C241.74 143.504 242.191 143.595 242.61 143.774C243.028 143.953 243.405 144.216 243.717 144.548C244.029 144.88 244.269 145.273 244.422 145.702C244.575 146.131 244.638 146.587 244.606 147.041L242.367 184.145C242.296 185.097 241.871 185.987 241.177 186.641C240.482 187.295 239.568 187.665 238.614 187.678Z" fill="#333533"/>
<path d="M237.696 187.678H179.089C178.633 187.683 178.181 187.594 177.762 187.415C177.342 187.237 176.964 186.973 176.652 186.641C176.34 186.309 176.1 185.916 175.948 185.486C175.795 185.056 175.733 184.6 175.766 184.145L178.006 147.041C178.075 146.09 178.497 145.2 179.191 144.546C179.884 143.892 180.797 143.521 181.75 143.508H240.366C240.822 143.504 241.273 143.595 241.692 143.774C242.11 143.953 242.487 144.216 242.799 144.548C243.111 144.88 243.351 145.273 243.504 145.702C243.657 146.131 243.72 146.587 243.688 147.041L241.449 184.145C241.378 185.097 240.953 185.987 240.259 186.641C239.564 187.295 238.65 187.665 237.696 187.678Z" fill="#1B4965"/>
<path d="M179.08 185.843C178.876 185.845 178.674 185.805 178.487 185.726C178.299 185.647 178.129 185.531 177.988 185.384C177.85 185.232 177.744 185.054 177.676 184.86C177.608 184.666 177.58 184.461 177.593 184.256L179.832 147.151C179.866 146.662 180.082 146.202 180.436 145.863C180.791 145.523 181.26 145.328 181.75 145.316H240.366C240.571 145.313 240.774 145.352 240.963 145.432C241.152 145.512 241.321 145.631 241.461 145.78C241.601 145.93 241.709 146.107 241.776 146.301C241.844 146.494 241.87 146.699 241.853 146.904L239.614 184.008C239.582 184.498 239.367 184.959 239.012 185.299C238.657 185.638 238.187 185.833 237.696 185.843H179.08Z" fill="white"/>
<path opacity="0.2" d="M204.822 143.508L208.631 156.549L219.937 143.508H204.822Z" fill="black"/>
<path d="M105.342 131.264C105.425 131.904 105.824 132.386 106.248 132.352C106.671 132.319 106.937 131.771 106.854 131.132C106.771 130.492 106.372 130.01 105.957 130.044C105.542 130.077 105.268 130.642 105.342 131.264Z" fill="#263238"/>
<path d="M106.04 132.219C106.788 133.877 107.754 135.428 108.914 136.829C108 137.751 106.331 137.377 106.331 137.377L106.04 132.219Z" fill="#A02724"/>
<path d="M103.225 128.831C103.162 128.843 103.097 128.843 103.034 128.831C102.942 128.791 102.869 128.716 102.83 128.624C102.791 128.531 102.79 128.427 102.826 128.333C103.042 127.78 103.389 127.287 103.838 126.898C104.286 126.509 104.823 126.234 105.401 126.099C105.449 126.09 105.499 126.092 105.547 126.103C105.595 126.114 105.64 126.134 105.681 126.162C105.721 126.191 105.755 126.227 105.781 126.269C105.807 126.311 105.825 126.357 105.833 126.406C105.85 126.505 105.827 126.607 105.769 126.689C105.712 126.771 105.624 126.828 105.525 126.846C105.072 126.956 104.654 127.175 104.306 127.485C103.958 127.795 103.692 128.186 103.532 128.623C103.501 128.68 103.457 128.729 103.404 128.765C103.35 128.801 103.289 128.824 103.225 128.831Z" fill="#263238"/>
<path d="M86.5227 141.289L91.5059 145.11L98.308 150.317C97.9351 151.1 97.7098 151.944 97.6436 152.809C97.4027 154.719 97.1618 156.131 101.406 157.302C101.857 157.409 102.267 157.644 102.588 157.979C102.909 158.313 103.127 158.732 103.216 159.187C103.383 160.317 102.693 161.679 98.7731 162.351C94.9761 162.919 91.0972 162.258 87.7021 160.466C86.041 159.636 86.041 158.639 86.7386 156.953C88.8316 152.161 87.8183 146.048 86.5227 141.289Z" fill="#EBB3AD"/>
<path d="M80.7998 158.464C81.7567 156.623 82.5462 154.7 83.1585 152.717C83.1585 152.717 95.7826 152.028 99.9519 153.274C104.121 154.519 106.712 159.918 106.712 159.918L80.7998 158.464Z" fill="#1B4965"/>
<path d="M86.0821 167.858C85.7748 168.788 85.4342 169.926 85.1103 170.972L84.1718 174.211C83.5905 176.371 83.0257 178.538 82.5855 180.698C82.1169 182.809 81.7593 184.944 81.5141 187.093C81.2581 189.067 81.1969 191.062 81.3314 193.048C81.3804 193.888 81.5083 194.723 81.7135 195.539C81.7633 195.705 81.8048 195.888 81.8629 196.046L82.029 196.494C81.9897 196.414 81.9454 196.336 81.8962 196.262C81.8114 196.141 81.7199 196.024 81.6221 195.913C81.5151 195.785 81.3923 195.67 81.2567 195.573C81.0906 195.456 81.0656 195.473 81.0989 195.514C81.3421 195.689 81.6039 195.837 81.8796 195.955C82.2533 196.121 82.7101 196.287 83.1669 196.445C84.1054 196.76 85.1436 197.051 86.2149 197.333C90.5005 198.413 95.1764 199.252 99.736 200.223L99.5865 205.979C97.1509 206.304 94.7005 206.506 92.2446 206.585C89.7526 206.676 87.2575 206.634 84.7698 206.461C83.4525 206.373 82.141 206.212 80.8414 205.979C80.1604 205.855 79.4544 205.713 78.7069 205.506C77.8472 205.284 77.0124 204.975 76.2153 204.584C75.6253 204.3 75.0682 203.952 74.5543 203.546C74.1903 203.256 73.8539 202.934 73.5493 202.582C73.3589 202.357 73.1815 202.121 73.0178 201.876C72.9347 201.735 72.8434 201.594 72.7686 201.453L72.6606 201.253L72.0876 200.082C71.9132 199.692 71.772 199.31 71.6225 198.92C71.0984 197.466 70.7201 195.963 70.4929 194.435C69.6624 188.662 70.3185 183.513 71.1823 178.505C71.6474 176.013 72.1955 173.522 72.8434 171.155C73.1756 169.951 73.5244 168.746 73.8981 167.559C74.2719 166.371 74.6705 165.225 75.1522 163.921L86.0821 167.858Z" fill="#EBB3AD"/>
<path d="M78.3999 157.435C86.2485 155.358 90.9078 161.787 88.2501 172.384C85.5924 182.982 84.7037 183.38 84.7037 183.38L68.5166 180.681C70.5099 170.3 70.3521 159.552 78.3999 157.435Z" fill="#1B4965"/>
<path d="M103.756 197.923L102.536 197.815C99.064 197.815 98.466 198.762 96.3315 200.747L95.501 205.116C101.107 207.981 104.114 204.833 104.122 204.833H109.313L107.486 200.681C107.167 199.93 106.653 199.278 105.997 198.793C105.341 198.308 104.568 198.008 103.756 197.923Z" fill="#EBB3AD"/>
<path d="M84.3795 133.025C85.7914 140.591 86.2316 145.093 90.567 148.473C97.0783 153.548 106.048 148.722 106.928 140.849C107.717 133.764 105.267 122.577 97.4438 120.592C95.699 120.161 93.8737 120.177 92.1365 120.638C90.3993 121.098 88.8062 121.989 87.5043 123.228C86.2024 124.467 85.2337 126.014 84.6875 127.727C84.1414 129.439 84.0354 131.261 84.3795 133.025Z" fill="#EBB3AD"/>
<path d="M99.3712 135.666C104.77 135.234 103.192 129.545 101.522 128.358C104.055 127.394 105.8 123.374 103.366 120.617C104.795 116.888 100.708 112.395 93.5409 113.067C88.3085 113.549 87.7272 116.315 87.7272 116.315C87.7272 116.315 81.4566 115.659 78.8488 120.833C76.6229 125.268 79.3222 127.635 79.3222 127.635C79.3222 127.635 74.638 128.997 75.9336 135.11C77.3123 141.704 82.3785 140.176 82.3785 140.176C82.3785 140.176 81.2407 146.222 88.0926 146.305C94.0143 146.38 94.089 141.945 94.089 141.945C94.089 141.945 101.763 141.231 99.3712 135.666Z" fill="#263238"/>
<path d="M95.3509 136.106C95.9563 137.729 97.1392 139.072 98.673 139.877C100.65 140.89 102.161 138.789 101.812 136.63C101.497 134.694 99.8109 132.211 97.7262 132.095C95.6416 131.979 94.6117 134.096 95.3509 136.106Z" fill="#EBB3AD"/>
<path d="M175.871 323.259L183.254 320.26L178.039 302.529L170.655 305.518L175.871 323.259Z" fill="#EBB3AD"/>
<path opacity="0.2" d="M173.188 314.123L180.647 311.382L178.039 302.529L170.655 305.518L173.188 314.123Z" fill="black"/>
<path d="M182.615 317.304L174.168 320.236C174.097 320.257 174.031 320.293 173.974 320.34C173.917 320.388 173.87 320.446 173.835 320.511C173.8 320.577 173.779 320.648 173.772 320.722C173.765 320.796 173.773 320.871 173.795 320.942L175.705 327.769C175.828 328.12 176.084 328.409 176.417 328.574C176.751 328.739 177.137 328.766 177.49 328.649C180.406 327.569 181.585 326.988 185.189 325.426C188.738 323.942 192.208 322.279 195.588 320.443C198.403 318.782 196.709 315.95 195.339 316.415C192.091 317.511 186.767 318.226 184.068 317.296C183.596 317.136 183.085 317.139 182.615 317.304Z" fill="#263238"/>
<path d="M116.572 220.962C116.572 220.962 172.375 225.945 173.82 241.999C176.727 274.664 181.187 306.158 181.187 306.158L169.834 310.311C169.834 310.311 155.939 274.432 156.122 248.851C140.026 244.308 97.7018 250.978 90.7835 238.561C84.6708 227.598 90.036 219.725 90.036 219.725L116.572 220.962Z" fill="#263238"/>
<path d="M168.986 312.894L183.122 308.118L182.507 301.682L166.569 306.814L168.986 312.894Z" fill="#1B4965"/>
<path d="M185.729 317.644C185.05 317.863 184.348 318.005 183.637 318.068C183.6 318.073 183.564 318.067 183.531 318.05C183.499 318.034 183.472 318.008 183.454 317.977C183.435 317.947 183.426 317.912 183.426 317.877C183.426 317.842 183.435 317.807 183.454 317.777C183.637 317.528 185.264 315.336 186.303 315.369C186.421 315.376 186.537 315.412 186.638 315.474C186.739 315.537 186.824 315.623 186.884 315.726C186.992 315.872 187.059 316.045 187.078 316.226C187.097 316.407 187.067 316.59 186.992 316.756C186.695 317.197 186.245 317.514 185.729 317.644ZM184.068 317.644C185.505 317.445 186.485 317.063 186.71 316.59C186.756 316.481 186.773 316.362 186.757 316.245C186.74 316.128 186.693 316.017 186.618 315.925C186.592 315.872 186.552 315.827 186.503 315.794C186.453 315.762 186.395 315.744 186.336 315.743C185.738 315.718 184.708 316.789 184.027 317.644H184.068Z" fill="#1B4965"/>
<path d="M183.678 318.06C183.648 318.068 183.617 318.068 183.587 318.06C183.556 318.055 183.527 318.042 183.503 318.023C183.478 318.004 183.459 317.98 183.445 317.952C183.445 317.86 182.49 315.759 182.989 314.763C183.053 314.635 183.145 314.524 183.259 314.437C183.373 314.351 183.505 314.292 183.645 314.264C183.798 314.213 183.963 314.216 184.114 314.271C184.265 314.327 184.393 314.433 184.475 314.571C184.932 315.336 184.359 317.287 183.769 317.993C183.746 318.024 183.714 318.047 183.678 318.06ZM183.678 314.655C183.607 314.679 183.542 314.717 183.487 314.767C183.431 314.817 183.386 314.877 183.354 314.945C183.055 315.535 183.421 316.797 183.695 317.503C184.151 316.723 184.484 315.269 184.185 314.771C184.127 314.679 184.027 314.571 183.761 314.63L183.678 314.655Z" fill="#1B4965"/>
<path d="M136.363 328.533L144.253 328.159L145.541 309.53L137.651 309.904L136.363 328.533Z" fill="#EBB3AD"/>
<path d="M144.435 326.814L135.499 326.531C135.424 326.526 135.35 326.535 135.279 326.558C135.208 326.581 135.143 326.618 135.087 326.667C135.03 326.715 134.984 326.775 134.951 326.841C134.918 326.908 134.898 326.98 134.892 327.054L134.236 334.106C134.23 334.293 134.26 334.48 134.326 334.655C134.392 334.83 134.492 334.991 134.62 335.128C134.748 335.264 134.902 335.374 135.073 335.451C135.243 335.528 135.428 335.57 135.615 335.576C138.729 335.617 140.216 335.484 144.145 335.576C146.561 335.65 151.32 336.008 154.634 335.576C157.948 335.144 157.441 331.896 155.996 331.772C152.583 331.498 148.006 329.139 145.822 327.304C145.43 326.986 144.94 326.813 144.435 326.814Z" fill="#263238"/>
<path d="M147.243 328.283C146.53 328.242 145.823 328.125 145.134 327.935C145.099 327.927 145.066 327.909 145.042 327.882C145.017 327.856 145 327.823 144.994 327.788C144.988 327.752 144.992 327.716 145.007 327.683C145.021 327.65 145.045 327.622 145.076 327.602C145.333 327.428 147.634 325.941 148.597 326.373C148.706 326.421 148.801 326.495 148.874 326.59C148.947 326.684 148.994 326.795 149.012 326.913C149.06 327.088 149.061 327.272 149.014 327.447C148.968 327.623 148.875 327.782 148.747 327.91C148.312 328.222 147.774 328.356 147.243 328.283ZM145.649 327.677C147.061 328.009 148.14 328.001 148.497 327.677C148.579 327.59 148.636 327.482 148.662 327.365C148.689 327.248 148.683 327.127 148.647 327.013C148.639 326.955 148.617 326.9 148.582 326.854C148.547 326.807 148.501 326.771 148.448 326.747C147.899 326.498 146.554 327.121 145.582 327.677H145.649Z" fill="#1B4965"/>
<path d="M145.141 327.943C145.111 327.95 145.08 327.95 145.05 327.943C145.023 327.926 145.001 327.903 144.985 327.875C144.969 327.848 144.96 327.817 144.959 327.785C144.959 327.694 144.851 325.402 145.673 324.654C145.781 324.549 145.913 324.472 146.059 324.431C146.204 324.391 146.357 324.387 146.504 324.422C146.662 324.43 146.814 324.492 146.933 324.598C147.052 324.704 147.132 324.846 147.16 325.003C147.309 325.875 146.072 327.494 145.266 327.943C145.226 327.959 145.181 327.959 145.141 327.943ZM146.329 324.779C146.255 324.774 146.18 324.784 146.11 324.81C146.04 324.836 145.976 324.876 145.922 324.928C145.432 325.368 145.324 326.681 145.324 327.42C146.03 326.855 146.861 325.617 146.761 325.044C146.761 324.936 146.678 324.812 146.412 324.77L146.329 324.779Z" fill="#1B4965"/>
<path opacity="0.2" d="M137.65 309.904L145.548 309.53L144.801 320.186L136.936 320.177L137.65 309.904Z" fill="black"/>
<path d="M98.0338 220.073C98.0338 220.073 158.164 229.267 157.209 243.112C155.49 268.028 147.135 316.722 147.135 316.722L135.292 316.889C135.292 316.889 132.493 266.94 136.953 248.735C122.161 248.735 80.4348 248.22 74.7457 240.621C68.4502 232.224 74.9201 219.027 74.9201 219.027L98.0338 220.073Z" fill="#263238"/>
<path d="M133.896 317.819L148.231 317.594L148.937 310.02L133.207 310.635L133.896 317.819Z" fill="#1B4965"/>
<path d="M108.623 156.596C103.781 155.649 81.9458 155.923 81.9458 155.923C79.7632 155.863 77.6376 156.625 75.9891 158.056C74.3406 159.488 73.2891 161.486 73.0425 163.655C72.2784 170.391 76.5557 185.44 76.7052 193.114C76.8879 202.541 75.0856 206.361 74.9029 219.052L116.571 220.962C116.571 195.44 115.458 174.311 114.453 164.179C114.096 160.616 113.465 157.534 108.623 156.596Z" fill="#1B4965"/>
<path opacity="0.3" d="M108.623 156.596C103.781 155.649 81.9458 155.923 81.9458 155.923C79.7632 155.863 77.6376 156.625 75.9891 158.056C74.3406 159.488 73.2891 161.486 73.0425 163.655C72.2784 170.391 76.5557 185.44 76.7052 193.114C76.8879 202.541 75.0856 206.361 74.9029 219.052L116.571 220.962C116.571 195.44 115.458 174.311 114.453 164.179C114.096 160.616 113.465 157.534 108.623 156.596Z" fill="white"/>
<path d="M114.329 164.635C115.633 169.12 116.945 173.73 118.299 178.231C119.653 182.733 121.04 187.259 122.601 191.52C122.983 192.608 123.432 193.621 123.797 194.667L124.437 196.137L124.52 196.32V196.411V196.461V196.403C124.376 196.147 124.197 195.912 123.988 195.706C123.706 195.431 123.598 195.407 123.573 195.407C123.758 195.574 123.972 195.706 124.204 195.797C124.611 195.993 125.029 196.162 125.458 196.303C126.397 196.627 127.451 196.918 128.523 197.209C132.866 198.313 137.609 199.161 142.227 200.149L142.077 205.904C139.598 206.239 137.103 206.441 134.602 206.511C132.071 206.608 129.537 206.561 127.011 206.37C125.668 206.274 124.332 206.102 123.008 205.855C122.31 205.722 121.588 205.556 120.807 205.331C119.881 205.072 118.989 204.704 118.149 204.235C117.48 203.851 116.866 203.379 116.322 202.831C115.907 202.404 115.55 201.923 115.259 201.403L114.977 200.88L114.038 199.102C113.49 197.94 112.892 196.769 112.377 195.614C111.356 193.28 110.459 190.971 109.562 188.654C108.665 186.337 107.901 184.02 107.128 181.694C105.592 177.019 104.205 172.392 102.976 167.575L114.329 164.635Z" fill="#EBB3AD"/>
<path d="M102.494 160.009C108.191 154.195 115.475 157.368 118.606 167.866C121.737 178.364 121.173 179.128 121.173 179.128L105.866 185.066C102.253 175.067 96.6636 165.931 102.494 160.009Z" fill="#1B4965"/>
<path d="M146.296 197.923L145.075 197.815C141.604 197.815 141.014 198.762 138.879 200.747L138.049 205.116C143.655 207.981 146.661 204.833 146.661 204.833H151.861L150.025 200.681C149.708 199.929 149.194 199.276 148.538 198.791C147.882 198.306 147.108 198.006 146.296 197.923Z" fill="#EBB3AD"/>
<path d="M76.7309 251.775H129.951C131.121 251.775 132.069 250.827 132.069 249.657V246.235C132.069 245.066 131.121 244.117 129.951 244.117H76.7309C75.5613 244.117 74.6131 245.066 74.6131 246.235V249.657C74.6131 250.827 75.5613 251.775 76.7309 251.775Z" fill="#C29818"/>
<path d="M76.971 337.029H74.6123L77.3282 251.767H80.5921L76.971 337.029Z" fill="#1B4965"/>
<path opacity="0.4" d="M76.971 337.029H74.6123L77.3282 251.767H80.5921L76.971 337.029Z" fill="white"/>
<path d="M98.6646 337.029H101.023L98.3157 251.767H95.0518L98.6646 337.029Z" fill="#1B4965"/>
<path opacity="0.4" d="M98.6646 337.029H101.023L98.3157 251.767H95.0518L98.6646 337.029Z" fill="white"/>
<path d="M108.017 337.029H105.658L108.374 251.767H111.638L108.017 337.029Z" fill="#1B4965"/>
<path opacity="0.4" d="M108.017 337.029H105.658L108.374 251.767H111.638L108.017 337.029Z" fill="white"/>
<path d="M129.71 337.029H132.069L129.362 251.767H126.098L129.71 337.029Z" fill="#1B4965"/>
<path opacity="0.4" d="M129.71 337.029H132.069L129.362 251.767H126.098L129.71 337.029Z" fill="white"/>
<g opacity="0.3">
<path d="M77.3282 251.767H80.5922L80.4344 255.388H77.2119L77.3282 251.767Z" fill="#1B4965"/>
<path d="M98.4237 255.388H95.2012L95.0518 251.767H98.3074L98.4237 255.388Z" fill="#1B4965"/>
<path d="M111.629 251.767L111.479 255.388H108.257L108.373 251.767H111.629Z" fill="#1B4965"/>
<path d="M129.477 255.388H126.246L126.097 251.767H129.361L129.477 255.388Z" fill="#1B4965"/>
</g>
<path d="M297.612 128.872H166.622C165.605 128.882 164.596 128.681 163.659 128.282C162.723 127.883 161.88 127.294 161.183 126.552C160.486 125.811 159.95 124.933 159.609 123.973C159.269 123.014 159.131 121.995 159.205 120.98L164.202 38.0778C164.359 35.9538 165.306 33.9656 166.856 32.505C168.406 31.0443 170.446 30.2169 172.576 30.1859H303.533C304.55 30.1754 305.559 30.376 306.496 30.7752C307.432 31.1743 308.275 31.7633 308.972 32.505C309.669 33.2467 310.205 34.1248 310.546 35.0841C310.886 36.0433 311.024 37.0627 310.95 38.0778L305.945 121.012C305.783 123.124 304.839 125.1 303.298 126.553C301.757 128.006 299.729 128.833 297.612 128.872Z" fill="#1B4965"/>
<path d="M184.147 111.346L196.227 152.67L232.063 111.346H184.147Z" fill="#1B4965"/>
<path opacity="0.1" d="M291.224 95.5129H217.817C217.246 95.5189 216.68 95.4065 216.155 95.1828C215.63 94.9591 215.157 94.6289 214.766 94.2132C214.374 93.7975 214.074 93.3052 213.882 92.7673C213.691 92.2295 213.613 91.6579 213.654 91.0886L216.459 44.6204C216.547 43.4296 217.078 42.3149 217.947 41.4959C218.815 40.677 219.96 40.2132 221.153 40.196H294.56C295.133 40.1838 295.702 40.2919 296.23 40.5135C296.758 40.735 297.234 41.065 297.626 41.4821C298.018 41.8992 298.319 42.3941 298.508 42.9347C298.697 43.4753 298.77 44.0496 298.723 44.6204L295.918 91.0886C295.83 92.2793 295.3 93.394 294.431 94.213C293.562 95.0319 292.418 95.4957 291.224 95.5129Z" fill="white"/>
<path opacity="0.1" d="M251.953 115.558H178.538C177.968 115.563 177.403 115.449 176.879 115.225C176.355 115.001 175.883 114.671 175.492 114.255C175.102 113.839 174.802 113.347 174.611 112.81C174.42 112.273 174.343 111.702 174.384 111.133L177.189 64.6651C177.276 63.4757 177.806 62.3622 178.673 61.5434C179.54 60.7247 180.682 60.26 181.875 60.2408H255.29C255.862 60.2297 256.43 60.3387 256.957 60.5608C257.484 60.7828 257.959 61.113 258.35 61.53C258.742 61.947 259.041 62.4414 259.23 62.9815C259.418 63.5215 259.491 64.0951 259.444 64.6651L256.639 111.133C256.552 112.323 256.022 113.436 255.155 114.255C254.288 115.074 253.146 115.538 251.953 115.558Z" fill="white"/>
<g opacity="0.5">
<path d="M177.565 37.3992C177.55 38.0272 177.301 38.627 176.867 39.0809C176.432 39.5348 175.844 39.81 175.217 39.8527C174.92 39.8379 174.628 39.7607 174.362 39.626C174.096 39.4912 173.861 39.302 173.673 39.0706C173.485 38.8393 173.347 38.5709 173.27 38.2829C173.192 37.995 173.176 37.6939 173.222 37.3992C173.241 36.7724 173.491 36.1747 173.924 35.7216C174.358 35.2684 174.944 34.9921 175.569 34.9458C175.867 34.9605 176.158 35.0378 176.425 35.1725C176.691 35.3073 176.925 35.4965 177.114 35.7279C177.302 35.9592 177.439 36.2276 177.517 36.5156C177.595 36.8035 177.611 37.1046 177.565 37.3992Z" fill="#C29818"/>
<path d="M185.571 37.3992C185.554 38.0266 185.304 38.6254 184.871 39.0789C184.437 39.5324 183.85 39.8082 183.224 39.8527C182.925 39.839 182.633 39.7626 182.366 39.6284C182.099 39.4941 181.863 39.3051 181.674 39.0735C181.485 38.842 181.347 38.5733 181.268 38.2848C181.19 37.9963 181.174 37.6945 181.22 37.3992C181.239 36.7724 181.489 36.1747 181.922 35.7216C182.356 35.2684 182.942 34.9921 183.567 34.9458C183.865 34.9607 184.157 35.038 184.423 35.1726C184.69 35.3073 184.925 35.4963 185.114 35.7275C185.303 35.9587 185.441 36.227 185.52 36.5149C185.598 36.8029 185.616 37.1041 185.571 37.3992Z" fill="#C29818"/>
<path d="M193.635 37.3992C193.62 38.0272 193.371 38.627 192.937 39.0809C192.503 39.5348 191.914 39.81 191.288 39.8527C190.99 39.8379 190.698 39.7607 190.432 39.626C190.166 39.4912 189.932 39.302 189.743 39.0706C189.555 38.8393 189.418 38.5709 189.34 38.2829C189.262 37.995 189.246 37.6939 189.292 37.3992C189.311 36.7724 189.561 36.1747 189.995 35.7216C190.428 35.2684 191.014 34.9921 191.639 34.9458C191.937 34.9605 192.229 35.0378 192.495 35.1725C192.761 35.3073 192.996 35.4965 193.184 35.7279C193.372 35.9592 193.51 36.2276 193.587 36.5156C193.665 36.8035 193.681 37.1046 193.635 37.3992Z" fill="#C29818"/>
</g>
<path opacity="0.3" d="M296.597 128.103H165.641C164.595 128.111 163.56 127.903 162.599 127.492C161.637 127.08 160.772 126.475 160.056 125.713C159.34 124.951 158.79 124.049 158.439 123.065C158.088 122.08 157.945 121.033 158.019 119.99L163.024 37.0884C163.181 34.9123 164.149 32.8743 165.735 31.3769C167.322 29.8794 169.413 29.0314 171.594 29.0002H302.518C303.564 28.992 304.599 29.2001 305.56 29.6114C306.521 30.0227 307.387 30.6283 308.103 31.3902C308.819 32.152 309.369 33.0537 309.72 34.0386C310.07 35.0234 310.214 36.0701 310.14 37.113L305.143 120.015C304.985 122.186 304.02 124.22 302.439 125.716C300.857 127.212 298.774 128.064 296.597 128.103ZM171.594 29.4173C169.514 29.4427 167.519 30.2486 166.004 31.6753C164.489 33.1021 163.566 35.0457 163.416 37.1211L158.411 120.023C158.339 121.011 158.472 122.002 158.803 122.936C159.133 123.869 159.654 124.724 160.332 125.446C161.01 126.168 161.831 126.741 162.741 127.129C163.652 127.518 164.634 127.713 165.624 127.702H296.597C298.677 127.675 300.671 126.868 302.186 125.442C303.7 124.016 304.624 122.073 304.775 119.998L309.772 37.0966C309.842 36.106 309.706 35.1117 309.372 34.1765C309.038 33.2413 308.514 32.3856 307.832 31.6637C307.15 30.9418 306.325 30.3694 305.411 29.9827C304.496 29.596 303.511 29.4035 302.518 29.4173H171.594Z" fill="#263238"/>
<path d="M225.684 79.6391C225.128 80.8167 224.621 81.8227 224.049 82.9104C223.476 83.998 222.904 84.9794 222.315 86.0017C221.113 88.038 219.862 90.0908 218.52 92.0044C217.844 92.9858 217.152 93.959 216.443 94.924C215.699 95.8727 214.996 96.8377 214.202 97.7619C212.655 99.6772 210.986 101.491 209.205 103.192C208.756 103.634 208.265 104.01 207.791 104.476C207.32 104.918 206.823 105.33 206.302 105.711L204.732 106.897L204.25 107.232C204.036 107.367 203.815 107.49 203.587 107.6C203.138 107.816 202.666 107.98 202.18 108.091C201.221 108.315 200.223 108.323 199.259 108.114C198.296 107.904 197.391 107.483 196.611 106.88C196.224 106.575 195.87 106.23 195.556 105.85L195.335 105.556L195.229 105.408L195.188 105.343L195.041 105.081L194.452 104.018C194.272 103.675 194.15 103.348 194.002 103.012C193.487 101.778 193.066 100.507 192.743 99.2094C192.174 96.8448 191.775 94.4425 191.549 92.0208C191.31 89.6625 191.206 87.2924 191.238 84.9222C191.255 84.2497 191.512 83.6055 191.963 83.1059C192.413 82.6062 193.027 82.2839 193.694 82.197C194.361 82.1102 195.038 82.2646 195.601 82.6323C196.164 83 196.578 83.5569 196.767 84.2025V84.3006C197.85 88.4687 199.191 92.5657 200.782 96.5678C201.146 97.4146 201.57 98.2345 202.05 99.0213C202.156 99.1848 202.262 99.3811 202.369 99.5201L202.679 99.8963L202.753 99.9945L202.712 99.9291L202.622 99.8064C202.494 99.6388 202.346 99.4877 202.18 99.3566C201.854 99.0933 201.475 98.9036 201.068 98.8005C200.661 98.7144 200.24 98.7144 199.833 98.8005C199.622 98.8451 199.416 98.9137 199.22 99.0049C199.114 99.0049 199.024 99.1112 198.926 99.1603C198.827 99.2094 198.68 99.3321 198.787 99.2421L199.809 98.2444C200.152 97.9336 200.488 97.5574 200.823 97.1976C201.158 96.8377 201.502 96.4861 201.829 96.1017C204.525 92.868 206.98 89.4403 209.173 85.8463C210.293 84.0226 211.397 82.1661 212.444 80.2852L214.022 77.4555L215.519 74.6913L215.601 74.5441C216.311 73.2736 217.484 72.3265 218.875 71.9005C220.267 71.4745 221.769 71.6026 223.069 72.2581C224.368 72.9136 225.364 74.0457 225.848 75.4181C226.333 76.7904 226.268 78.2969 225.668 79.6227L225.684 79.6391Z" fill="#263238"/>
<path d="M192.007 84.5625L188.024 82.2808L192.31 77.9055C193.566 78.8361 194.73 79.885 195.785 81.0377C196.034 81.3015 196.218 81.6198 196.321 81.9672C196.425 82.3146 196.446 82.6814 196.382 83.0383C196.318 83.3952 196.172 83.7322 195.955 84.0225C195.738 84.3127 195.456 84.5481 195.131 84.7097C194.637 84.9389 194.095 85.0451 193.551 85.0195C193.007 84.9939 192.477 84.8371 192.007 84.5625Z" fill="#FFC3BD"/>
<path d="M187.116 77.5946L189.284 76.049C189.565 75.8442 189.916 75.7585 190.261 75.8105C190.605 75.8626 190.915 76.0481 191.124 76.327L192.309 77.9054L188.024 82.2807L186.675 79.2057C186.552 78.9273 186.529 78.6152 186.61 78.3218C186.69 78.0284 186.869 77.7717 187.116 77.5946Z" fill="#FFC3BD"/>
<path d="M217.106 75.9756C217.43 74.9069 218.043 73.9484 218.877 73.2054C219.711 72.4624 220.734 71.9636 221.832 71.7638C223.42 71.413 225.029 71.1671 226.649 71.0278C231.527 70.8374 236.412 70.9248 241.28 71.2895C243.832 71.4612 246.441 71.8211 248.518 72.1646H248.591C249.691 72.347 250.674 72.9583 251.324 73.8644C251.974 74.7704 252.238 75.8973 252.059 76.9978C251.037 82.9025 248.035 93.1742 247.708 102.865C247.275 115.59 247.471 122.918 247.25 125.985L214.497 125.355C212.215 94.2537 215.053 83.0169 217.106 75.9756Z" fill="white"/>
<path d="M249.467 71.6819H249.361C247.169 71.3221 244.454 70.9377 241.73 70.7578L240.275 70.676C238.844 76.597 230.314 86.558 227.73 101.655C226.732 89.0359 225.963 75.8446 227.427 70.7006C225.112 70.7709 222.802 70.9647 220.508 71.2812C219.295 71.5557 218.176 72.1468 217.265 72.9944C216.354 73.8419 215.684 74.9157 215.323 76.1063C213.311 82.0273 209.468 95.2922 211.831 127.907H248.232C248.469 124.635 247.619 117.766 248.935 107.191C250.203 96.9524 252.027 83.0168 253.098 76.7933C253.29 75.6345 253.016 74.4468 252.336 73.4893C251.656 72.5317 250.624 71.882 249.467 71.6819Z" fill="#263238"/>
<path opacity="0.2" d="M226.952 126.206C226.897 126.208 226.844 126.189 226.802 126.152C226.761 126.115 226.736 126.064 226.732 126.009C225.963 116.809 227.402 103.601 227.419 103.462C227.422 103.434 227.43 103.407 227.444 103.382C227.457 103.358 227.476 103.336 227.498 103.319C227.52 103.301 227.545 103.288 227.572 103.28C227.599 103.273 227.628 103.271 227.656 103.274C227.713 103.28 227.765 103.308 227.802 103.353C227.839 103.397 227.857 103.454 227.852 103.511C227.852 103.642 226.396 116.817 227.165 125.968C227.168 125.997 227.166 126.026 227.158 126.054C227.15 126.081 227.136 126.107 227.118 126.129C227.099 126.151 227.077 126.169 227.051 126.183C227.026 126.196 226.998 126.204 226.969 126.206H226.952Z" fill="white"/>
<path opacity="0.3" d="M248.183 84.628C246.833 90.7452 247.553 99.2178 249.001 106.946C250.072 98.2691 251.536 87.0078 252.607 80.0401C251.111 79.0423 249.254 79.7457 248.183 84.628Z" fill="black"/>
<path d="M227.345 70.9868C231.589 70.0545 232.325 67.4375 232.023 64.5424C231.948 63.8191 231.831 63.1009 231.671 62.3916L236.971 58.0571L240.871 54.884C239.808 59.5783 238.639 68.1408 241.845 71.3384C241.845 71.3384 239.228 75.632 231.949 75.1086C225.799 74.6669 227.345 70.9868 227.345 70.9868Z" fill="#FFC3BD"/>
<path d="M233.798 74.0291L232.62 75.1413L236.382 76.5561L235.891 75.1249L233.798 74.0291Z" fill="#E0E0E0"/>
<path d="M236.676 78.5515C236.676 78.5515 235.195 74.8141 233.797 74.0208C236.547 73.3649 239.067 71.9709 241.084 69.989L243.316 70.8804C243.316 70.8804 244.02 75.2148 236.676 78.5515Z" fill="#F5F5F5"/>
<path d="M231.736 73.7346L232.619 75.1413L228.661 75.4847L229.454 74.2335L231.736 73.7346Z" fill="#E0E0E0"/>
<path d="M226.675 77.4966C228.125 75.9516 229.839 74.6776 231.737 73.7346C229.586 73.0967 229.455 70.1362 229.455 70.1362L227.37 70.537C227.37 70.537 223.542 74.258 226.675 77.4966Z" fill="#F5F5F5"/>
<path opacity="0.2" d="M231.671 62.3834C231.83 63.0956 231.947 63.8165 232.023 64.5424C234.002 64.1826 236.651 62.089 236.929 60.0853C237.023 59.4134 237.043 58.7332 236.987 58.0571L231.671 62.3834Z" fill="black"/>
<path d="M225.235 40.9812C223.338 43.312 223.518 51.7437 227.533 51.8418C231.549 51.9399 228.686 36.7286 225.235 40.9812Z" fill="#263238"/>
<path d="M242.532 47.1149C242.131 53.502 242.213 57.2558 238.991 60.5597C234.149 65.5239 226.298 62.6697 224.785 56.3153C223.436 50.5906 224.319 41.1121 230.559 38.5196C231.922 37.9365 233.412 37.715 234.885 37.8764C236.358 38.0379 237.765 38.5769 238.969 39.4412C240.173 40.3056 241.134 41.466 241.758 42.8104C242.382 44.1547 242.648 45.6373 242.532 47.1149Z" fill="#FFC3BD"/>
<path d="M239.391 41.799C235.376 45.7817 240.593 48.7013 238.573 50.844C242.36 52.8231 240.97 54.2788 240.97 54.2788C240.577 55.3677 240.577 56.5593 240.97 57.6482C245.239 56.5523 253.163 42.3714 244.511 40.196C239.334 42.5023 239.391 41.799 239.391 41.799Z" fill="#263238"/>
<path d="M241.035 44.6614C237.232 45.2502 232.448 43.4347 229.479 41.8972C226.511 40.3597 226.077 43.263 227.173 44.1462C225.268 44.2116 222.855 42.7068 223.452 39.3456C224 36.2788 228.015 33.3756 233.732 35.9681C237.78 37.8 242.769 35.3874 244.715 37.5056C246.662 39.6237 243.57 44.2607 241.035 44.6614Z" fill="#263238"/>
<path d="M243.636 40.4988C246.187 40.1635 246.294 38.5524 245.582 35.731C248.338 39.6483 247.218 40.8505 245.582 41.7991C243.758 41.1858 243.636 40.4988 243.636 40.4988Z" fill="#263238"/>
<path d="M244.249 52.0135C243.683 53.2629 242.696 54.2733 241.46 54.8677C239.882 55.5792 239.08 54.1235 239.506 52.4143C239.89 50.8686 241.141 48.6441 242.777 48.6605C244.412 48.6768 244.96 50.4351 244.249 52.0135Z" fill="#FFC3BD"/>
<path d="M232.562 49.0447C232.562 49.56 232.284 49.9852 231.949 49.9934C231.614 50.0016 231.368 49.5763 231.368 49.0447C231.368 48.5132 231.646 48.1042 231.982 48.1042C232.317 48.1042 232.562 48.5213 232.562 49.0447Z" fill="#263238"/>
<path d="M226.706 49.0939C226.706 49.6173 226.428 50.0344 226.085 50.0426C225.741 50.0508 225.471 49.6255 225.48 49.1021C225.488 48.5787 225.75 48.1616 226.093 48.1616C226.437 48.1616 226.706 48.5787 226.706 49.0939Z" fill="#263238"/>
<path d="M228.915 49.2739C228.304 50.8667 227.478 52.3689 226.462 53.7392C226.814 53.9867 227.216 54.155 227.639 54.2326C228.063 54.3103 228.498 54.2954 228.915 54.189V49.2739Z" fill="#ED847E"/>
<path d="M230.976 55.5874C231.57 55.5209 232.143 55.3317 232.66 55.0318C233.177 54.7319 233.625 54.3279 233.978 53.8454C233.999 53.8118 234.007 53.7709 233.998 53.7318C233.99 53.6927 233.966 53.6586 233.933 53.6369C233.899 53.6152 233.858 53.6078 233.819 53.6162C233.78 53.6246 233.746 53.6482 233.724 53.6819C233.331 54.1961 232.823 54.6116 232.241 54.8955C231.659 55.1794 231.019 55.3239 230.371 55.3175C230.351 55.3175 230.331 55.3215 230.313 55.3294C230.294 55.3373 230.278 55.3489 230.264 55.3635C230.25 55.378 230.24 55.3952 230.233 55.414C230.226 55.4328 230.223 55.4529 230.224 55.4729C230.224 55.4929 230.228 55.5127 230.236 55.5312C230.244 55.5496 230.255 55.5662 230.27 55.58C230.284 55.5938 230.302 55.6044 230.32 55.6113C230.339 55.6182 230.359 55.6212 230.379 55.6201C230.592 55.5874 230.788 55.5874 230.976 55.5874Z" fill="#263238"/>
<path d="M235.4 46.9756C235.452 46.9727 235.501 46.9526 235.539 46.9184C235.572 46.895 235.599 46.8652 235.62 46.8307C235.641 46.7963 235.654 46.758 235.66 46.7181C235.665 46.6783 235.662 46.6378 235.651 46.5991C235.64 46.5604 235.622 46.5243 235.596 46.4931C235.316 46.1059 234.947 45.7911 234.52 45.5749C234.093 45.3587 233.621 45.2474 233.143 45.25C233.103 45.2531 233.065 45.2641 233.03 45.2823C232.995 45.3005 232.964 45.3257 232.938 45.3562C232.913 45.3868 232.894 45.4221 232.883 45.46C232.872 45.498 232.868 45.5378 232.873 45.5772C232.881 45.6589 232.921 45.7342 232.983 45.7875C233.046 45.8409 233.126 45.868 233.208 45.8634C233.588 45.8598 233.963 45.9488 234.301 46.1227C234.638 46.2965 234.929 46.55 235.147 46.8611C235.177 46.8991 235.215 46.9293 235.259 46.9492C235.303 46.9692 235.352 46.9782 235.4 46.9756Z" fill="#263238"/>
<path d="M224.335 47.2292C224.384 47.2226 224.43 47.2042 224.47 47.1757C224.51 47.1472 224.542 47.1094 224.564 47.0657C224.721 46.7118 224.958 46.3998 225.258 46.1554C225.558 45.9109 225.912 45.7408 226.29 45.659C226.33 45.6553 226.369 45.6431 226.404 45.6233C226.439 45.6035 226.47 45.5764 226.494 45.544C226.517 45.5116 226.534 45.4745 226.543 45.4351C226.551 45.3957 226.552 45.355 226.543 45.3156C226.529 45.2368 226.486 45.1662 226.423 45.1177C226.359 45.0693 226.28 45.0465 226.2 45.0539C225.723 45.1479 225.276 45.3543 224.894 45.6558C224.513 45.9573 224.209 46.3453 224.008 46.7876C223.974 46.8605 223.969 46.9439 223.995 47.0202C224.021 47.0965 224.076 47.1597 224.147 47.1965C224.206 47.2238 224.271 47.2351 224.335 47.2292Z" fill="#263238"/>
<path d="M254.071 75.3785C255.068 77.4803 255.903 79.4676 256.72 81.5121C257.538 83.5566 258.266 85.6421 258.994 87.7275C260.422 91.9778 261.575 96.3158 262.445 100.714C262.633 101.851 262.846 102.963 262.985 104.133L263.091 105L263.148 105.433V105.654V105.957C263.23 106.802 263.23 107.654 263.148 108.5C262.959 110.351 262.322 112.128 261.292 113.677C260.326 115.096 259.058 116.283 257.579 117.152C256.347 117.876 255.02 118.427 253.637 118.788C252.406 119.125 251.147 119.35 249.875 119.459C247.477 119.685 245.059 119.589 242.687 119.172C242.043 119.064 241.457 118.736 241.029 118.244C240.601 117.751 240.357 117.125 240.34 116.473C240.322 115.821 240.532 115.183 240.934 114.668C241.335 114.153 241.903 113.794 242.539 113.652L242.834 113.587C243.652 113.399 244.723 113.17 245.639 112.924C246.555 112.679 247.487 112.393 248.354 112.107C249.868 111.622 251.271 110.844 252.484 109.817C252.805 109.519 253.049 109.149 253.196 108.737C253.253 108.448 253.253 108.151 253.196 107.862C253.168 107.642 253.127 107.423 253.073 107.208L252.778 105.875C252.59 104.942 252.32 103.977 252.075 103.029C251.568 101.107 250.996 99.1851 250.341 97.255C249.687 95.325 249.017 93.4031 248.305 91.4813C247.594 89.5594 246.841 87.6375 246.081 85.7566C245.32 83.8756 244.519 81.8965 243.758 80.1055V80.0237C243.146 78.6594 243.102 77.108 243.634 75.7108C244.166 74.3136 245.232 73.1851 246.596 72.5734C247.96 71.9617 249.511 71.9171 250.909 72.4493C252.306 72.9815 253.434 74.0469 254.046 75.4112L254.071 75.3785Z" fill="#263238"/>
<path d="M240.103 116.008L236.496 117.741L242.728 119.958C242.728 119.958 246.882 118.633 244.871 116.326L243.75 115.975C241.951 115.386 241.068 115.451 240.103 116.008Z" fill="#FFC3BD"/>
<path d="M236.979 122.141L239.719 122.664C240.11 122.736 240.514 122.684 240.875 122.516C241.236 122.347 241.535 122.07 241.731 121.724L242.728 119.933L236.497 117.741L235.679 119.45C235.552 119.709 235.485 119.993 235.484 120.281C235.483 120.569 235.548 120.853 235.673 121.113C235.799 121.372 235.981 121.599 236.208 121.777C236.434 121.956 236.698 122.08 236.979 122.141Z" fill="#FFC3BD"/>
</g>
<defs>
<filter id="filter0_d_1001_10817" x="12" y="344" width="342" height="27.5" filterUnits="userSpaceOnUse" color-interpolation-filters="sRGB">
<feFlood flood-opacity="0" result="BackgroundImageFix"/>
<feColorMatrix in="SourceAlpha" type="matrix" values="0 0 0 0 0 0 0 0 0 0 0 0 0 0 0 0 0 0 127 0" result="hardAlpha"/>
<feOffset dy="4"/>
<feGaussianBlur stdDeviation="2"/>
<feComposite in2="hardAlpha" operator="out"/>
<feColorMatrix type="matrix" values="0 0 0 0 0 0 0 0 0 0 0 0 0 0 0 0 0 0 0.25 0"/>
<feBlend mode="normal" in2="BackgroundImageFix" result="effect1_dropShadow_1001_10817"/>
<feBlend mode="normal" in="SourceGraphic" in2="effect1_dropShadow_1001_10817" result="shape"/>
</filter>
<clipPath id="clip0_1001_10817">
<rect width="369" height="369" fill="white"/>
</clipPath>
</defs>
</svg>
