<svg width="20" height="21" viewBox="0 0 20 21" fill="none" xmlns="http://www.w3.org/2000/svg">
<path fill-rule="evenodd" clip-rule="evenodd" d="M11.874 0.241341C11.4886 0.0830078 10.999 0.0830078 10.0209 0.0830078C9.04279 0.0830078 8.55425 0.0830078 8.16779 0.241341C7.91351 0.345243 7.68228 0.498405 7.48742 0.692015C7.29256 0.885624 7.13791 1.11586 7.03238 1.36947C6.93446 1.60176 6.89696 1.87363 6.88134 2.26842C6.8739 2.55436 6.79391 2.83372 6.64886 3.08025C6.50382 3.32679 6.29849 3.53241 6.05217 3.6778C5.80086 3.81749 5.51836 3.89149 5.23084 3.89295C4.94332 3.89441 4.66009 3.82327 4.40738 3.68613C4.05529 3.50072 3.80008 3.39863 3.548 3.3653C2.99653 3.29335 2.4389 3.44155 1.99592 3.7778C1.66467 4.02988 1.41988 4.45072 0.931335 5.29134C0.441751 6.13197 0.198001 6.55176 0.142793 6.96322C0.0698762 7.51113 0.219876 8.0653 0.55946 8.50384C0.713626 8.70384 0.931335 8.87155 1.26779 9.08197C1.76467 9.39134 2.08342 9.91843 2.08342 10.4997C2.08342 11.0809 1.76467 11.608 1.26883 11.9163C0.931335 12.1278 0.713626 12.2955 0.558418 12.4955C0.3913 12.7124 0.268573 12.9601 0.197257 13.2245C0.125941 13.4888 0.107433 13.7646 0.142793 14.0361C0.198001 14.4466 0.441751 14.8674 0.931335 15.708C1.42092 16.5486 1.66467 16.9684 1.99592 17.2215C2.43758 17.558 2.99592 17.7059 3.548 17.6341C3.80008 17.6007 4.05529 17.4986 4.40738 17.3132C4.66022 17.1759 4.94364 17.1047 5.23136 17.1061C5.51908 17.1076 5.80177 17.1817 6.05321 17.3216C6.55946 17.6132 6.85946 18.1497 6.88134 18.7309C6.89696 19.1268 6.93446 19.3976 7.03238 19.6299C7.24488 20.1403 7.65321 20.5466 8.16779 20.758C8.55321 20.9163 9.04279 20.9163 10.0209 20.9163C10.999 20.9163 11.4886 20.9163 11.874 20.758C12.1283 20.6541 12.3596 20.5009 12.5544 20.3073C12.7493 20.1137 12.9039 19.8835 13.0095 19.6299C13.1074 19.3976 13.1449 19.1268 13.1605 18.7309C13.1813 18.1497 13.4824 17.6122 13.9897 17.3216C14.241 17.1819 14.5235 17.1079 14.811 17.1064C15.0985 17.1049 15.3818 17.1761 15.6345 17.3132C15.9865 17.4986 16.2418 17.6007 16.4938 17.6341C17.0459 17.707 17.6043 17.558 18.0459 17.2215C18.3772 16.9695 18.622 16.5486 19.1105 15.708C19.6001 14.8674 19.8438 14.4476 19.899 14.0361C19.9343 13.7646 19.9156 13.4887 19.8441 13.2243C19.7726 12.96 19.6497 12.7123 19.4824 12.4955C19.3282 12.2955 19.1105 12.1278 18.774 11.9174C18.2772 11.608 17.9584 11.0809 17.9584 10.4997C17.9584 9.91843 18.2772 9.39134 18.773 9.08301C19.1105 8.87155 19.3282 8.70384 19.4834 8.50384C19.6505 8.28695 19.7733 8.03925 19.8446 7.7749C19.9159 7.51055 19.9344 7.23473 19.899 6.96322C19.8438 6.5528 19.6001 6.13197 19.1105 5.29134C18.6209 4.45072 18.3772 4.03092 18.0459 3.7778C17.6029 3.44155 17.0453 3.29335 16.4938 3.3653C16.2418 3.39863 15.9865 3.50072 15.6345 3.68613C15.3816 3.82346 15.0982 3.89469 14.8105 3.89324C14.5228 3.89178 14.2401 3.81768 13.9886 3.6778C13.7425 3.53228 13.5374 3.3266 13.3925 3.08008C13.2477 2.83355 13.1678 2.55426 13.1605 2.26842C13.1449 1.87259 13.1074 1.60176 13.0095 1.36947C12.9039 1.11586 12.7493 0.885624 12.5544 0.692015C12.3596 0.498405 12.1283 0.345243 11.874 0.241341ZM10.0209 13.6247C11.7605 13.6247 13.1699 12.2257 13.1699 10.4997C13.1699 8.77363 11.7595 7.37467 10.0209 7.37467C8.28238 7.37467 6.87196 8.77363 6.87196 10.4997C6.87196 12.2257 8.28238 13.6247 10.0209 13.6247Z" fill="#1B4965"/>
</svg>
