<svg width="25" height="25" viewBox="0 0 25 25" fill="none" xmlns="http://www.w3.org/2000/svg">
<path fill-rule="evenodd" clip-rule="evenodd" d="M14.8743 2.24134C14.4889 2.08301 13.9993 2.08301 13.0212 2.08301C12.043 2.08301 11.5545 2.08301 11.168 2.24134C10.9138 2.34524 10.6825 2.49841 10.4877 2.69201C10.2928 2.88562 10.1382 3.11586 10.0326 3.36947C9.9347 3.60176 9.8972 3.87363 9.88158 4.26842C9.87414 4.55436 9.79415 4.83372 9.64911 5.08025C9.50407 5.32679 9.29874 5.53241 9.05241 5.6778C8.8011 5.81749 8.5186 5.89149 8.23109 5.89295C7.94357 5.89441 7.66033 5.82327 7.40762 5.68613C7.05554 5.50072 6.80033 5.39863 6.54825 5.3653C5.99677 5.29335 5.43915 5.44155 4.99616 5.7778C4.66491 6.02988 4.42012 6.45072 3.93158 7.29134C3.442 8.13197 3.19825 8.55176 3.14304 8.96322C3.07012 9.51113 3.22012 10.0653 3.5597 10.5038C3.71387 10.7038 3.93158 10.8715 4.26804 11.082C4.76491 11.3913 5.08366 11.9184 5.08366 12.4997C5.08366 13.0809 4.76491 13.608 4.26908 13.9163C3.93158 14.1278 3.71387 14.2955 3.55866 14.4955C3.39154 14.7124 3.26882 14.9601 3.1975 15.2245C3.12618 15.4888 3.10768 15.7646 3.14304 16.0361C3.19825 16.4466 3.442 16.8674 3.93158 17.708C4.42116 18.5486 4.66491 18.9684 4.99616 19.2215C5.43783 19.558 5.99616 19.7059 6.54825 19.6341C6.80033 19.6007 7.05554 19.4986 7.40762 19.3132C7.66046 19.1759 7.94389 19.1047 8.23161 19.1061C8.51933 19.1076 8.80202 19.1817 9.05345 19.3216C9.5597 19.6132 9.8597 20.1497 9.88158 20.7309C9.8972 21.1268 9.9347 21.3976 10.0326 21.6299C10.2451 22.1403 10.6535 22.5466 11.168 22.758C11.5535 22.9163 12.043 22.9163 13.0212 22.9163C13.9993 22.9163 14.4889 22.9163 14.8743 22.758C15.1286 22.6541 15.3598 22.5009 15.5547 22.3073C15.7495 22.1137 15.9042 21.8835 16.0097 21.6299C16.1076 21.3976 16.1451 21.1268 16.1607 20.7309C16.1816 20.1497 16.4826 19.6122 16.9899 19.3216C17.2412 19.1819 17.5237 19.1079 17.8112 19.1064C18.0988 19.1049 18.382 19.1761 18.6347 19.3132C18.9868 19.4986 19.242 19.6007 19.4941 19.6341C20.0462 19.707 20.6045 19.558 21.0462 19.2215C21.3774 18.9695 21.6222 18.5486 22.1107 17.708C22.6003 16.8674 22.8441 16.4476 22.8993 16.0361C22.9345 15.7646 22.9158 15.4887 22.8443 15.2243C22.7728 14.96 22.6499 14.7123 22.4826 14.4955C22.3285 14.2955 22.1107 14.1278 21.7743 13.9174C21.2774 13.608 20.9587 13.0809 20.9587 12.4997C20.9587 11.9184 21.2774 11.3913 21.7732 11.083C22.1107 10.8716 22.3285 10.7038 22.4837 10.5038C22.6508 10.287 22.7735 10.0393 22.8448 9.7749C22.9161 9.51055 22.9346 9.23473 22.8993 8.96322C22.8441 8.5528 22.6003 8.13197 22.1107 7.29134C21.6212 6.45072 21.3774 6.03092 21.0462 5.7778C20.6032 5.44155 20.0456 5.29335 19.4941 5.3653C19.242 5.39863 18.9868 5.50072 18.6347 5.68613C18.3819 5.82346 18.0984 5.89469 17.8107 5.89324C17.523 5.89178 17.2403 5.81768 16.9889 5.6778C16.7427 5.53228 16.5376 5.3266 16.3928 5.08008C16.2479 4.83355 16.1681 4.55426 16.1607 4.26842C16.1451 3.87259 16.1076 3.60176 16.0097 3.36947C15.9042 3.11586 15.7495 2.88562 15.5547 2.69201C15.3598 2.49841 15.1286 2.34524 14.8743 2.24134ZM13.0212 15.6247C14.7607 15.6247 16.1701 14.2257 16.1701 12.4997C16.1701 10.7736 14.7597 9.37467 13.0212 9.37467C11.2826 9.37467 9.8722 10.7736 9.8722 12.4997C9.8722 14.2257 11.2826 15.6247 13.0212 15.6247Z" fill="#1B4965"/>
</svg>
