<svg width="13" height="11" viewBox="0 0 13 11" fill="none" xmlns="http://www.w3.org/2000/svg">
<path d="M3.40771 10.6134C3.1805 10.7505 2.90025 10.5468 2.96057 10.2884L3.73949 6.95097C3.7648 6.84252 3.72795 6.72897 3.64378 6.65605L1.05272 4.41126C0.852329 4.23765 0.959147 3.90849 1.22329 3.88563L4.63636 3.59027C4.74698 3.58069 4.84327 3.51081 4.88665 3.4086L6.22389 0.258189C6.32734 0.0144885 6.67273 0.0144754 6.77619 0.258169L8.11338 3.40783C8.15677 3.51002 8.25305 3.5799 8.36366 3.58948L11.776 3.88483C12.0401 3.9077 12.1469 4.23685 11.9465 4.41046L9.3555 6.65523C9.27131 6.72817 9.23446 6.84174 9.2598 6.95021L10.0393 10.2876C10.0997 10.546 9.81948 10.7498 9.59225 10.6127L6.655 8.84094C6.55968 8.78345 6.44036 8.78346 6.34505 8.84097L3.40771 10.6134Z" fill="#C29818"/>
</svg>
