<svg width="24" height="25" viewBox="0 0 24 25" fill="none" xmlns="http://www.w3.org/2000/svg">
<g clip-path="url(#clip0_566_2856)">
<path d="M18.375 0.5H5.625C2.5184 0.5 0 3.0184 0 6.125V18.875C0 21.9816 2.5184 24.5 5.625 24.5H18.375C21.4816 24.5 24 21.9816 24 18.875V6.125C24 3.0184 21.4816 0.5 18.375 0.5Z" fill="#FFFFFE"/>
<path d="M18.375 0.5H5.625C2.5184 0.5 0 3.0184 0 6.125V18.875C0 21.9816 2.5184 24.5 5.625 24.5H18.375C21.4816 24.5 24 21.9816 24 18.875V6.125C24 3.0184 21.4816 0.5 18.375 0.5Z" fill="#1B4965"/>
<path d="M19.1474 9.41353C19.1577 9.56231 19.1577 9.71109 19.1577 9.86128C19.1577 14.436 15.6751 19.7121 9.30691 19.7121V19.7092C7.42564 19.712 5.58335 19.1732 4 18.1572C4.27369 18.19 4.54838 18.2067 4.82406 18.2072C6.38332 18.2085 7.89772 17.6855 9.12391 16.7223C8.40146 16.7086 7.70135 16.4695 7.12144 16.0384C6.54153 15.6074 6.11079 15.0059 5.88944 14.3181C6.40813 14.4181 6.94287 14.3977 7.45244 14.2584C5.83731 13.9321 4.67528 12.513 4.67528 10.8649V10.821C5.15677 11.0892 5.69564 11.2378 6.24653 11.2543C4.72534 10.2376 4.25641 8.21381 5.17497 6.6315C6.0441 7.70115 7.12855 8.57598 8.35786 9.19914C9.58718 9.8223 10.9338 10.1799 12.3104 10.2486C12.1731 9.65778 12.1934 9.04133 12.3692 8.46084C12.5449 7.88036 12.87 7.3562 13.3119 6.94078C14.7063 5.62996 16.8994 5.69718 18.2103 7.09087C18.9856 6.93781 19.7291 6.65357 20.4088 6.2504C20.1503 7.05203 19.6095 7.73248 18.8868 8.16515C19.5731 8.08422 20.2434 7.90051 20.875 7.62018C20.4104 8.31602 19.8254 8.92326 19.1474 9.41353Z" fill="#FFFFFE"/>
</g>
<defs>
<clipPath id="clip0_566_2856">
<rect width="24" height="24" fill="white" transform="translate(0 0.5)"/>
</clipPath>
</defs>
</svg>
