<svg width="20" height="20" viewBox="0 0 20 20" fill="none" xmlns="http://www.w3.org/2000/svg">
<path fill-rule="evenodd" clip-rule="evenodd" d="M4.16667 12.4975C4.33243 12.4975 4.4914 12.5633 4.60861 12.6806C4.72582 12.7978 4.79167 12.9567 4.79167 13.1225V15C4.79167 15.115 4.88501 15.2083 5.00001 15.2083H15C15.0553 15.2083 15.1082 15.1864 15.1473 15.1473C15.1864 15.1082 15.2083 15.0553 15.2083 15V13.1225C15.2083 12.9567 15.2742 12.7978 15.3914 12.6806C15.5086 12.5633 15.6676 12.4975 15.8333 12.4975C15.9991 12.4975 16.1581 12.5633 16.2753 12.6806C16.3925 12.7978 16.4583 12.9567 16.4583 13.1225V15C16.4583 15.3868 16.3047 15.7577 16.0312 16.0312C15.7577 16.3047 15.3868 16.4583 15 16.4583H5.00001C4.61323 16.4583 4.2423 16.3047 3.96881 16.0312C3.69532 15.7577 3.54167 15.3868 3.54167 15V13.1225C3.54167 12.9567 3.60752 12.7978 3.72473 12.6806C3.84194 12.5633 4.00091 12.4975 4.16667 12.4975Z" fill="#1B4965"/>
<path fill-rule="evenodd" clip-rule="evenodd" d="M10.1683 4.65001C10.3341 4.65001 10.4931 4.71586 10.6103 4.83307C10.7275 4.95028 10.7933 5.10925 10.7933 5.27501V12.0133C10.7933 12.1791 10.7275 12.3381 10.6103 12.4553C10.4931 12.5725 10.3341 12.6383 10.1683 12.6383C10.0026 12.6383 9.8436 12.5725 9.72639 12.4553C9.60918 12.3381 9.54333 12.1791 9.54333 12.0133V5.27584C9.54333 5.11008 9.60918 4.95111 9.72639 4.8339C9.8436 4.71669 10.0026 4.65001 10.1683 4.65001Z" fill="#1B4965"/>
<path fill-rule="evenodd" clip-rule="evenodd" d="M9.73167 3.72001C9.84843 3.60599 10.0051 3.54216 10.1683 3.54216C10.3315 3.54216 10.4882 3.60599 10.605 3.72001L13.3917 6.44167C13.5078 6.55802 13.5734 6.71543 13.5743 6.8798C13.5752 7.04418 13.5113 7.20229 13.3964 7.31988C13.2816 7.43747 13.125 7.50509 12.9607 7.50808C12.7963 7.51106 12.6374 7.44918 12.5183 7.33584L10.1683 5.04084L7.81834 7.33584C7.75988 7.39441 7.69038 7.44079 7.61386 7.47228C7.53734 7.50378 7.45533 7.51977 7.37259 7.51932C7.28984 7.51888 7.20801 7.502 7.13183 7.46968C7.05566 7.43736 6.98666 7.39023 6.92884 7.33104C6.87102 7.27184 6.82554 7.20175 6.79502 7.12483C6.7645 7.04792 6.74956 6.96571 6.75106 6.88298C6.75257 6.80024 6.77049 6.71863 6.80378 6.64287C6.83707 6.56712 6.88507 6.49873 6.945 6.44167L9.73167 3.72001Z" fill="#1B4965"/>
</svg>
