<svg width="64" height="52" viewBox="0 0 64 52" fill="none" xmlns="http://www.w3.org/2000/svg">
<path d="M57.333 6.99999H31.9997L27.5347 2.53499C26.3313 1.33166 24.7163 0.666656 23.038 0.666656H6.66634C3.18301 0.666656 0.364674 3.51666 0.364674 6.99999L0.333008 45C0.333008 48.4833 3.18301 51.3333 6.66634 51.3333H57.333C60.8163 51.3333 63.6663 48.4833 63.6663 45V13.3333C63.6663 9.84999 60.8163 6.99999 57.333 6.99999ZM35.1663 29.1667V38.6667C35.1663 40.4083 33.7413 41.8333 31.9997 41.8333C30.258 41.8333 28.833 40.4083 28.833 38.6667V29.1667H23.1647C21.7397 29.1667 21.043 27.4567 22.0563 26.475L30.923 17.64C31.5563 17.0067 32.538 17.0383 33.1713 17.64L42.0063 26.475C42.9563 27.4567 42.2597 29.1667 40.8663 29.1667H35.1663Z" fill="#1B4965"/>
</svg>
