<svg width="64" height="52" viewBox="0 0 64 52" fill="none" xmlns="http://www.w3.org/2000/svg">
<path d="M57.3334 6.99996H32L27.535 2.53496C26.3317 1.33163 24.7167 0.666626 23.0384 0.666626H6.66671C3.18337 0.666626 0.365041 3.51663 0.365041 6.99996L0.333374 45C0.333374 48.4833 3.18337 51.3333 6.66671 51.3333H57.3334C60.8167 51.3333 63.6667 48.4833 63.6667 45V13.3333C63.6667 9.84996 60.8167 6.99996 57.3334 6.99996ZM35.1667 29.1666V38.6666C35.1667 40.4083 33.7417 41.8333 32 41.8333C30.2584 41.8333 28.8334 40.4083 28.8334 38.6666V29.1666H23.165C21.74 29.1666 21.0434 27.4566 22.0567 26.475L30.9234 17.64C31.5567 17.0066 32.5384 17.0383 33.1717 17.64L42.0067 26.475C42.9567 27.4566 42.26 29.1666 40.8667 29.1666H35.1667Z" fill="#C29818"/>
</svg>
