<svg width="14" height="14" viewBox="0 0 14 14" fill="none" xmlns="http://www.w3.org/2000/svg">
<path fill-rule="evenodd" clip-rule="evenodd" d="M1.16667 9.4975C1.33243 9.4975 1.4914 9.56335 1.60861 9.68056C1.72582 9.79777 1.79167 9.95674 1.79167 10.1225V12C1.79167 12.115 1.88501 12.2083 2.00001 12.2083H12C12.0553 12.2083 12.1082 12.1864 12.1473 12.1473C12.1864 12.1082 12.2083 12.0553 12.2083 12V10.1225C12.2083 9.95674 12.2742 9.79777 12.3914 9.68056C12.5086 9.56335 12.6676 9.4975 12.8333 9.4975C12.9991 9.4975 13.1581 9.56335 13.2753 9.68056C13.3925 9.79777 13.4583 9.95674 13.4583 10.1225V12C13.4583 12.3868 13.3047 12.7577 13.0312 13.0312C12.7577 13.3047 12.3868 13.4583 12 13.4583H2.00001C1.61323 13.4583 1.2423 13.3047 0.968808 13.0312C0.695317 12.7577 0.541672 12.3868 0.541672 12V10.1225C0.541672 9.95674 0.60752 9.79777 0.72473 9.68056C0.84194 9.56335 1.00091 9.4975 1.16667 9.4975Z" fill="#1B4965"/>
<path fill-rule="evenodd" clip-rule="evenodd" d="M7.16833 1.65001C7.3341 1.65001 7.49307 1.71586 7.61028 1.83307C7.72749 1.95028 7.79333 2.10925 7.79333 2.27501V9.01334C7.79333 9.1791 7.72749 9.33807 7.61028 9.45528C7.49307 9.57249 7.3341 9.63834 7.16833 9.63834C7.00257 9.63834 6.8436 9.57249 6.72639 9.45528C6.60918 9.33807 6.54333 9.1791 6.54333 9.01334V2.27584C6.54333 2.11008 6.60918 1.95111 6.72639 1.8339C6.8436 1.71669 7.00257 1.65001 7.16833 1.65001Z" fill="#1B4965"/>
<path fill-rule="evenodd" clip-rule="evenodd" d="M6.73167 0.720006C6.84843 0.605989 7.00515 0.54216 7.16834 0.54216C7.33153 0.54216 7.48825 0.605989 7.60501 0.720006L10.3917 3.44167C10.5078 3.55802 10.5734 3.71543 10.5743 3.8798C10.5752 4.04418 10.5113 4.20229 10.3964 4.31988C10.2816 4.43747 10.125 4.50509 9.96065 4.50808C9.7963 4.51106 9.63739 4.44918 9.51834 4.33584L7.16834 2.04084L4.81834 4.33584C4.75988 4.39441 4.69038 4.44079 4.61386 4.47228C4.53734 4.50378 4.45533 4.51977 4.37259 4.51932C4.28984 4.51888 4.20801 4.502 4.13183 4.46968C4.05566 4.43736 3.98666 4.39023 3.92884 4.33104C3.87102 4.27184 3.82554 4.20175 3.79502 4.12483C3.7645 4.04792 3.74956 3.96571 3.75106 3.88298C3.75257 3.80024 3.77049 3.71863 3.80378 3.64287C3.83707 3.56712 3.88507 3.49873 3.945 3.44167L6.73167 0.720006Z" fill="#1B4965"/>
</svg>
