<svg width="14" height="15" viewBox="0 0 14 15" fill="none" xmlns="http://www.w3.org/2000/svg">
<path d="M12.7101 1.363L13.0543 1.70717C13.5285 2.182 13.4568 3.02375 12.8927 3.58725L5.79526 10.6847L3.49576 11.5258C3.20701 11.632 2.92585 11.4943 2.86868 11.2196C2.84942 11.1199 2.85852 11.0168 2.89493 10.9221L3.75243 8.60275L10.83 1.52459C11.3941 0.961086 12.2358 0.888169 12.7101 1.363ZM5.48551 2.06884C5.56212 2.06884 5.63797 2.08392 5.70875 2.11324C5.77952 2.14255 5.84383 2.18552 5.89799 2.23969C5.95216 2.29386 5.99513 2.35816 6.02444 2.42894C6.05376 2.49971 6.06885 2.57556 6.06885 2.65217C6.06885 2.72877 6.05376 2.80463 6.02444 2.8754C5.99513 2.94617 5.95216 3.01048 5.89799 3.06465C5.84383 3.11882 5.77952 3.16178 5.70875 3.1911C5.63797 3.22041 5.56212 3.2355 5.48551 3.2355H3.15218C2.84276 3.2355 2.54602 3.35842 2.32722 3.57721C2.10843 3.796 1.98551 4.09275 1.98551 4.40217V11.4022C1.98551 11.7116 2.10843 12.0083 2.32722 12.2271C2.54602 12.4459 2.84276 12.5688 3.15218 12.5688H10.1522C10.4616 12.5688 10.7583 12.4459 10.9771 12.2271C11.1959 12.0083 11.3188 11.7116 11.3188 11.4022V9.06884C11.3188 8.91413 11.3803 8.76575 11.4897 8.65636C11.5991 8.54696 11.7475 8.4855 11.9022 8.4855C12.0569 8.4855 12.2053 8.54696 12.3147 8.65636C12.4241 8.76575 12.4855 8.91413 12.4855 9.06884V11.4022C12.4855 12.021 12.2397 12.6145 11.8021 13.0521C11.3645 13.4897 10.771 13.7355 10.1522 13.7355H3.15218C2.53334 13.7355 1.93985 13.4897 1.50227 13.0521C1.06468 12.6145 0.818848 12.021 0.818848 11.4022V4.40217C0.818848 3.78333 1.06468 3.18984 1.50227 2.75225C1.93985 2.31467 2.53334 2.06884 3.15218 2.06884H5.48551Z" fill="#1B4965"/>
</svg>
